<svg width="69" height="75" fill="none" xmlns="http://www.w3.org/2000/svg"><g id="Group"><g id="Group_2"><path id="Vector" d="M18.186 64.583l28.522 10.025a2.289 2.289 0 002.918-1.4l19.244-54.75a2.289 2.289 0 00-1.4-2.919L38.947 5.514a2.289 2.289 0 00-2.918 1.4l-19.244 54.75a2.289 2.289 0 001.4 2.919z" fill="#fff"/><path id="Vector_2" d="M19.87 63.3l26.327 9.253a2.138 2.138 0 002.726-1.307l18.17-51.697a2.138 2.138 0 00-1.307-2.726L39.458 7.57a2.138 2.138 0 00-2.725 1.308L18.56 60.574a2.138 2.138 0 001.308 2.725z" stroke="#662549" stroke-miterlimit="10" stroke-linecap="round" stroke-linejoin="round"/><g id="Group_3"><path id="Vector_3" d="M46.803 51.559c6.347-2.2 9.71-9.127 7.512-15.475-2.199-6.348-9.127-9.71-15.474-7.512-6.348 2.199-9.711 9.127-7.513 15.474 2.199 6.348 9.127 9.711 15.475 7.513z" fill="#fff"/><g id="Group_4"><path id="Vector_4" d="M42.274 47.991c.206-.134.362-.331.454-.56.077-.19.158-.388.198-.47.133-.28.231-.572.354-.855.106-.245.313-.452.6-.415a.595.595 0 01.258.104.866.866 0 01.01-.335.395.395 0 01.22-.236c.167-.072.35-.028.525-.014a.668.668 0 00.412-.108c.54-.334.795-.947 1.111-1.511a4.6 4.6 0 01-.485-.292c-.27-.182-.526-.363-.84-.464-.307-.1-.63-.146-.94-.24-1-.302-1.75-1.149-1.973-2.163-.069-.31.289-.498.535-.349 1.146.693 2.714.67 3.833-.077.768-.512 1.341-1.272 1.459-2.146.495-3.676-1.459-7.322-4.218-9.926a12.23 12.23 0 014.494 1.253c5.017 2.496 7.698 8.237 6.384 13.684-1.718 7.123-9.136 11.032-15.87 8.666a12.181 12.181 0 01-2.807-1.416 13.52 13.52 0 006.286-2.13z" fill="#662549"/><path id="Vector_5" d="M47.942 47.012c.367.496.992.74 1.598.665.653-.081 1.171-.589 1.195-1.258a2.56 2.56 0 00-.159-.935 1.828 1.828 0 00-.463-.71c-.269-.264-.62-.35-.923-.387-.62-.077-1.201.32-1.46.864-.273.574-.158 1.26.212 1.761z" fill="#fff"/><path id="Vector_6" d="M50.15 38.232c.224-.099.497.042.706.13a5.58 5.58 0 011.889 1.276c.138.14.401.357.38.576a.171.171 0 01-.12.154c-.125.038-.23-.054-.312-.133-.183-.175-.353-.36-.547-.523a6.698 6.698 0 00-.611-.453 5.342 5.342 0 00-.732-.407 2.37 2.37 0 00-.13-.05l.019.07c.027.117.047.234.078.35.007.027.014.054.023.08-.009-.026.017.041.02.048.01.026.022.05.034.075.004.007.042.07.024.044a.684.684 0 00.073.09l.008.005.007.004.019.009a.452.452 0 00.027.008c.005 0 .009-.003.013-.003.024.004.048.01.071.015l.03.003h.03l.023-.005.017-.004.031-.01.016-.005c.02-.005.021-.005.002 0-.02.008-.019.007.002 0a.257.257 0 00.03-.013c.09-.041.215-.022.278.06.06.076.08.201.014.282a.512.512 0 01-.169.146.526.526 0 01-.223.045.673.673 0 01-.183-.023.301.301 0 01-.211-.154l.076.09c-.232-.137-.375-.367-.454-.62a2.735 2.735 0 01-.081-.373c-.023-.137-.06-.267-.093-.4v-.011a.514.514 0 01-.153-.15c-.046-.076.004-.19.079-.223z" fill="#fff"/><path id="Vector_7" d="M50.218 36.077c.152-.192.531-.221.76-.247.288-.033.577-.032.864.006.278.037.553.104.816.203.237.09.577.214.721.434.05.076.015.217-.1.198-.24-.04-.464-.202-.692-.288a3.285 3.285 0 00-.77-.192 3.45 3.45 0 00-1.14.05c-.128.026-.267.075-.394.04-.08-.024-.118-.139-.066-.204z" fill="#fff"/><path id="Vector_8" d="M42.737 41.495c.112.018.178.099.264.169.095.078.198.145.294.222a4.3 4.3 0 00.606.395c.208.114.432.202.66.27.14.04.284.062.428.084a.412.412 0 01-.052-.15c-.01-.097.069-.167.165-.141.123.033.225.146.31.237.093.101.184.207.282.305.191.192.412.377.659.493.2.095.421.145.643.14.232-.006.422-.101.628-.197.1-.048.212.074.143.168-.313.43-1.008.401-1.455.242a2.358 2.358 0 01-.778-.49c-.073-.065-.14-.137-.209-.208a.155.155 0 01-.062.022c-.256.034-.547-.04-.793-.107a3.718 3.718 0 01-.766-.304 3.127 3.127 0 01-.647-.46 1.887 1.887 0 01-.256-.301c-.069-.095-.157-.192-.15-.314.001-.04.043-.082.086-.075z" fill="#fff"/><path id="Vector_9" d="M44.307 45.724c.162.16.29.367.428.546.135.173.273.342.415.509a3.7 3.7 0 00.439.446c.08.067.163.129.25.186.09.058.202.099.24.21.027.082-.006.15-.09.176-.114.036-.214-.033-.307-.091a2.598 2.598 0 01-.27-.194 4.017 4.017 0 01-.492-.485 6.324 6.324 0 01-.407-.541c-.14-.201-.31-.404-.42-.622-.07-.139.114-.239.214-.14z" fill="#fff"/></g><path id="Vector_10" d="M46.803 51.559c6.347-2.2 9.71-9.127 7.512-15.475-2.199-6.348-9.127-9.71-15.474-7.512-6.348 2.199-9.711 9.127-7.513 15.474 2.199 6.348 9.127 9.711 15.475 7.513z" stroke="#662549" stroke-miterlimit="10" stroke-linecap="round" stroke-linejoin="round"/></g></g><g id="Group_5"><path id="Vector_11" d="M41.859 61.82L12.023 66.7a2.288 2.288 0 01-2.628-1.89L.03 7.536a2.288 2.288 0 011.89-2.628L31.756.03a2.288 2.288 0 012.628 1.89l9.364 57.273a2.289 2.289 0 01-1.89 2.628z" fill="#fff"/><path id="Vector_12" d="M40.426 60.262l-27.541 4.504A2.138 2.138 0 0110.43 63L1.588 8.92a2.138 2.138 0 011.764-2.454l27.542-4.503c1.165-.19 2.264.6 2.454 1.765l8.843 54.079a2.137 2.137 0 01-1.765 2.454z" stroke="#662549" stroke-miterlimit="10" stroke-linecap="round" stroke-linejoin="round"/><g id="Group_6"><path id="Vector_13" d="M36.514 30.821c-.732.016-1.358-.45-2.012-.715-.799-.322-1.552-.217-2.371-.036-.429.095-.853.171-1.291.1-.464-.076-.9-.275-1.354-.392a3.45 3.45 0 00-.692-.1 7.794 7.794 0 00-.48-.78c.126-.173.244-.354.362-.524a7.2 7.2 0 011.754-1.762c.608-.431 1.43-.66 1.927-1.23.513-.588.367-1.353.29-2.062-.09-.847.229-1.717 1.008-2.148.255-.14.156-.551-.153-.503-.912.142-1.864.312-2.668.79a3.35 3.35 0 00-.968.861c-.284.375-.507.778-.918 1.032-.387.24-.82.389-1.2.644a4.114 4.114 0 00-.907.844A4.063 4.063 0 0026 26.705a7.834 7.834 0 00-1.8-.817c.399-.785 1.52-.97 2-1.721.477-.747.371-1.655.57-2.484.204-.852.843-1.485 1.373-2.15.558-.7.935-1.435.882-2.353-.035-.619-.195-1.22-.159-1.844a4.457 4.457 0 01.51-1.805c.106-.204-.149-.357-.318-.299-2.135.73-2.53 3.22-3.598 4.905-1.037 1.634-3.067 2.411-3.858 4.23a3.849 3.849 0 00.065 3.176 7.31 7.31 0 00-.361.015c-.028-.06-.054-.12-.088-.177-.22-.366-.578-.653-.744-1.05-.32-.762.179-1.62-.065-2.407-.239-.773-.992-.964-1.641-1.28-.972-.472-1.092-1.573-1.114-2.543-.004-.168-.136-.275-.3-.216-.837.297-1.001 1.278-1.071 2.046-.043.464-.08.948.071 1.397.15.451.548.755.702 1.196.145.417-.014.88-.075 1.298-.059.411-.035.817.161 1.19.323.614.903.984 1.534 1.218-.182.082-.36.17-.535.265-.369-.267-.795-.282-1.21-.439-.448-.169-.637-.667-.881-1.04a6.148 6.148 0 00-.927-1.1c-.675-.637-1.472-1.085-2.348-1.383-.933-.318-1.816-.587-2.458-1.383-.65-.805-1.106-1.736-1.792-2.518-.156-.177-.428 0-.344.216.334.853.204 1.806.25 2.699.052.985.462 1.758.974 2.579l1.63 2.617c.47.752.916 1.533 1.635 2.076.623.471 1.456.85 2.257.977l-.068.13c-.324-.2-.73-.289-1.098-.31-.808-.047-1.572.232-2.364.336-.44.058-.853.024-1.284-.075-.387-.089-.772-.208-1.17-.234-.635-.042-1.317.139-1.684.695-.11.168-.023.434.2.446 1.353.069 2.46 1.02 3.796 1.183.385.047.773.008 1.159.04.423.034.814.19 1.223.293.155.039.32.065.485.074a7.807 7.807 0 00-.059.813c-.988-.464-2.2.178-3.014.8-.597.456-1.18.995-1.912 1.22-.558.172-1.619-.01-1.542.888.016.182.235.274.387.206.583-.26 1.247.038 1.771.306.5.255.992.539 1.555.626.577.09 1.177-.047 1.703-.287.294-.134.571-.305.838-.487.218-.149.479-.306.651-.518.077.222.164.437.26.648-.492.08-.973.38-1.276.736-.255.3-.389.664-.527 1.026-.152.401-.347.732-.657 1.03-.566.543-1.18.984-1.582 1.675a4.314 4.314 0 00-.593 2.255c.006.313.41.446.551.133.154-.342.412-.633.734-.826.38-.225.802-.239 1.225-.313.805-.142 1.256-.642 1.763-1.235.234-.275.482-.53.824-.667.405-.164.83-.213 1.202-.457.202-.131.383-.303.546-.497.116.094.228.19.349.277-.437.355-.736.875-.898 1.418-.282.942-.172 1.929-.148 2.896.026 1.015-.097 2.019-.582 2.925-.215.4-.47.775-.67 1.184a3.972 3.972 0 00-.37 1.374c-.054.547-.087 1.143-.026 1.69.053.479.28.91.73 1.113.17.077.331-.09.314-.255-.101-.948.886-1.538 1.592-1.93.8-.444 1.517-.93 1.857-1.819.352-.918.275-1.908.201-2.868-.04-.535-.098-1.09-.002-1.622.093-.512.39-.83.781-1.145.492-.398.879-.873 1.1-1.428.02.485.216.973.494 1.353.222.304.519.539.756.828.232.282.355.62.477.96.234.654.538 1.224 1.038 1.715.504.495 1.096.877 1.693 1.25.332.207.643-.236.351-.488-.52-.448-.305-1.236-.142-1.8.189-.65.346-1.275.134-1.941-.104-.325-.287-.632-.365-.964-.087-.374-.037-.762.004-1.139l.006-.054a4.87 4.87 0 001.6.825c.435.13.884.207 1.339.222.448.014.904-.025 1.346.058.947.178 1.318 1.177 1.99 1.753.68.584 1.568.859 2.433 1.03 1.123.222 2.276.268 3.342.719.332.14.558-.327.29-.538a36.73 36.73 0 01-2.093-1.755c-.66-.605-1.198-1.292-1.728-2.009-.473-.64-.99-1.236-1.73-1.567-.393-.176-.823-.284-1.176-.54-.349-.251-.592-.62-.833-.97-.297-.43-.65-.886-1.098-1.158.108-.002.216-.008.326-.02.38-.043.756-.13 1.138-.15.402-.02.797.07 1.18.182.692.203 1.392.463 2.124.37.74-.094 1.254-.71 1.974-.83.31-.078.244-.551-.082-.497-.682.168-1.243-.426-1.758-.778-.587-.401-1.225-.394-1.886-.578-.824-.23-1.738-.754-2.643-.874.001-.029.007-.057.009-.086.24.056.482.09.708.085.778-.017 1.406-.355 1.95-.894.276-.275.535-.575.856-.8.335-.233.722-.303 1.121-.331.816-.057 1.644.034 2.33-.501.186-.144.105-.532-.159-.526z" fill="#662549"/><g id="Group_7" fill="#fff"><path id="Vector_14" d="M18.304 34.464c-.31-.294-.748-.484-1.18-.371-.232.06-.458.188-.591.395a.954.954 0 00-.152.588.887.887 0 00.082.507c.198.37.595.577 1.01.585.44.008.908-.124 1.11-.553.186-.395.023-.865-.28-1.151z"/><path id="Vector_15" d="M27.075 32.7c-.339-.29-.81-.34-1.223-.206-.422.137-.782.571-.709 1.03-.003.03-.008.06-.009.088-.003.268.103.527.335.675.184.117.398.163.612.19.446.056.977-.041 1.238-.45.134-.21.19-.47.135-.715a1.12 1.12 0 00-.38-.612z"/><path id="Vector_16" d="M23.297 34.206a1.154 1.154 0 00-1.021.122c-.178.114-.264.292-.42.421-.298.246-.256-.283-.248-.442a7.697 7.697 0 00-.402-2.745c-.265-.8-.64-1.666-1.262-2.256-.543-.515-1.357-.798-2.064-.448-.213.105-.066.421.154.334.881-.347 1.674.304 2.105 1.023.455.756.741 1.624.904 2.49.084.445.127.894.138 1.346.009.34-.057.754.233 1.001.23.195.544.136.752-.06.134-.127.23-.276.4-.362.209-.107.419-.096.643-.062.214.034.284-.285.088-.361z"/><path id="Vector_17" d="M22.756 35.93c-.035-.05-.112-.074-.171-.063a.234.234 0 00-.148.085c-.012.014-.022.03-.034.045l-.046.06a.805.805 0 01-.111.088.577.577 0 01-.088.04c-.058.014-.119.022-.176.04-.048.016-.08.073-.086.12a.152.152 0 00.061.138c.08.061.196.064.291.058a.694.694 0 00.233-.059.687.687 0 00.224-.176.452.452 0 00.104-.212.248.248 0 00-.053-.163z"/><path id="Vector_18" d="M25.022 36.644c-.166-.086-.434.086-.593.146a3.65 3.65 0 01-.571.173 2.444 2.444 0 01-.535.06 2.696 2.696 0 01-.263-.018 1.648 1.648 0 01-.093-.016c-.014-.116-.105-.214-.246-.195-.18.023-.275.196-.413.292l-.006.004-.005.003a1.117 1.117 0 01-.15.07l-.019.007a.781.781 0 01-.168.03h-.02a.672.672 0 01-.149-.014 1.59 1.59 0 01-.047-.008c-.005-.002-.005-.001-.006-.001a1.534 1.534 0 01-.16-.062l-.006-.004c-.002 0-.002 0-.005-.003a.83.83 0 01-.09-.06c-.063-.047-.12-.106-.196-.133a.2.2 0 00-.263.191 6.045 6.045 0 00-.337.199c-.103.065-.2.139-.308.193a1.558 1.558 0 01-.326.12c-.125.03-.279.04-.393.103-.142.08-.105.27.05.303.13.028.29-.01.417-.037.133-.028.268-.064.392-.121.124-.057.234-.141.347-.219.105-.073.214-.133.333-.182.017-.007.03-.02.044-.031.198.16.471.247.71.241a1.187 1.187 0 00.789-.31l.093-.087c.128.064.299.089.417.1.21.017.427.007.634-.034.22-.044.435-.113.645-.191.105-.04.21-.082.313-.126.1-.042.226-.1.258-.212.023-.074-.006-.135-.074-.17z"/><path id="Vector_19" d="M23.003 38.203a1.66 1.66 0 01-.781.225 2.304 2.304 0 01-.396-.017c-.155-.019-.342-.084-.49-.012-.114.055-.147.233-.03.307.083.052.182.067.276.089.08.018.161.035.243.047.16.025.322.034.484.027a1.8 1.8 0 00.93-.293c.205-.14-.018-.5-.236-.373z"/><path id="Vector_20" d="M25.652 27.876c-.535-.274-1.155-.282-1.734-.172a5.217 5.217 0 00-.905.256c-.27.104-.63.237-.819.463-.069.083 0 .244.117.219.274-.06.538-.241.8-.347a4.61 4.61 0 01.813-.252c.534-.111 1.098-.129 1.597.119.182.09.31-.194.131-.286z"/><path id="Vector_21" d="M18.683 30.613a2.605 2.605 0 00-.982-.067c-.325.043-.65.152-.93.321-.232.14-.641.39-.669.689-.004.05.016.112.062.138l.032.017c.109.045.193-.055.267-.117.12-.1.233-.207.363-.295.014-.01.03-.015.045-.024.043.093.102.18.16.263.052.078.102.16.162.232a.712.712 0 00.536.252c.2.01.392-.022.58-.088.186-.064.388-.173.502-.338a.227.227 0 00-.01-.27c-.058-.071-.179-.108-.263-.06-.076.043-.146.094-.217.144-.006.004-.033.02-.012.008-.019.01-.037.021-.056.03a1.238 1.238 0 01-.103.05.698.698 0 01-.182.054 1.189 1.189 0 01-.163.02h-.028c-.033-.002-.065-.003-.098-.007-.05-.007-.034-.003-.073-.019-.013-.006-.015-.006-.004 0l-.02-.013a.594.594 0 01-.04-.03 1.283 1.283 0 01-.053-.058c-.096-.116-.186-.238-.29-.346a2.084 2.084 0 011.744.034c.14.067.246.155.406.16.112.003.193-.1.148-.207-.115-.28-.54-.403-.814-.473z"/><path id="Vector_22" d="M23.433 29.836c.278-.18.584-.311.91-.375.321-.064.665-.064.985.007.263.058.73.165.852.44.02.045.02.111-.015.15a.47.47 0 01-.024.027c-.09.077-.2.009-.29-.026-.146-.057-.288-.122-.439-.164-.016-.005-.034-.005-.05-.009-.011.102-.04.203-.067.301-.026.09-.047.184-.08.271a.713.713 0 01-.428.41 1.523 1.523 0 01-.58.101c-.195-.002-.422-.04-.582-.16a.227.227 0 01-.077-.26c.033-.086.135-.16.23-.14.086.016.169.043.252.067.007.002.038.009.014.004a.969.969 0 00.176.024.686.686 0 00.19-.006 1.2 1.2 0 00.161-.033c.008-.003.008-.002.009-.002l.018-.007c.03-.012.06-.024.09-.038.045-.022.032-.013.064-.04.01-.01.012-.011.004-.002l.015-.02a.602.602 0 00.04-.066l.019-.046c.055-.14.101-.285.166-.42a2.081 2.081 0 00-1.642.588c-.113.108-.185.225-.335.28-.106.039-.215-.032-.207-.149.02-.302.384-.553.62-.707z"/></g><path id="Vector_23" d="M23.044 40.34c-.72.025-1.433.075-2.15-.014a7.394 7.394 0 01-5.21-3.149c-1.6-2.3-1.79-5.433-.292-7.828a7.242 7.242 0 011.35-1.597c.554-.488 1.172-.844 1.825-1.18.25-.13.08-.479-.18-.39-1.265.43-2.378 1.422-3.155 2.489-.815 1.121-1.333 2.469-1.43 3.854-.219 3.143 1.584 6.198 4.381 7.611a8.13 8.13 0 002.37.76c.84.136 1.75.178 2.572-.066.307-.091.24-.502-.081-.49z" fill="#fff"/><path id="Vector_24" d="M29.33 30.993c-.538-1.785-1.706-3.3-3.262-4.317-.841-.549-1.774-1.012-2.777-1.146-.131-.017-.178.179-.054.224.8.296 1.582.617 2.292 1.097.714.482 1.325 1.101 1.855 1.777 1.145 1.462 1.9 3.356 1.482 5.222a8.254 8.254 0 01-.53 1.525c-.229.518-.543 1.01-.745 1.539-.113.295.305.528.49.264.3-.427.518-.936.738-1.409.225-.484.425-.982.565-1.498a5.824 5.824 0 00-.053-3.278z" fill="#fff"/></g></g></g></svg>