<svg width="28" height="30" fill="none" xmlns="http://www.w3.org/2000/svg"><path d="M7.3 25.924l11.448 4.024a.919.919 0 001.172-.562l7.724-21.977a.919.919 0 00-.562-1.172L15.634 2.213a.919.919 0 00-1.172.562L6.738 24.752a.919.919 0 00.562 1.172z" fill="#fff"/><path d="M7.976 25.409l10.568 3.714a.858.858 0 001.094-.525l7.294-20.751a.858.858 0 00-.525-1.094L15.839 3.038a.858.858 0 00-1.094.525L7.45 24.314a.858.858 0 00.525 1.095z" stroke="#662549" stroke-miterlimit="10" stroke-linecap="round" stroke-linejoin="round"/><path d="M18.787 20.696a4.882 4.882 0 10-3.196-9.227 4.882 4.882 0 003.196 9.227z" fill="#fff"/><path d="M16.969 19.264a.483.483 0 00.182-.225c.031-.076.064-.156.08-.189.053-.112.092-.23.142-.343.042-.098.125-.181.24-.167.04.005.073.022.104.042a.348.348 0 01.004-.134.158.158 0 01.088-.095c.067-.029.141-.011.211-.006a.27.27 0 00.165-.043c.217-.134.32-.38.447-.607a1.844 1.844 0 01-.195-.116c-.109-.074-.211-.146-.337-.187-.124-.04-.253-.059-.378-.096a1.168 1.168 0 01-.792-.868c-.027-.125.116-.2.215-.14.46.277 1.09.268 1.539-.032.308-.205.538-.51.585-.86.2-1.477-.585-2.94-1.693-3.985.605.048 1.216.21 1.804.503a4.894 4.894 0 012.563 5.493 4.884 4.884 0 01-7.497 2.91 5.428 5.428 0 002.523-.855z" fill="#662549"/><path d="M19.244 18.87a.694.694 0 00.641.268.532.532 0 00.48-.505 1.028 1.028 0 00-.064-.376.732.732 0 00-.186-.285.62.62 0 00-.37-.155c-.249-.03-.482.129-.586.347a.699.699 0 00.085.707zm.886-3.524c.09-.04.2.017.284.052a2.242 2.242 0 01.758.512c.055.057.161.144.153.232a.069.069 0 01-.049.062c-.05.015-.092-.022-.125-.053-.074-.07-.142-.145-.22-.21a2.665 2.665 0 00-.245-.182 2.133 2.133 0 00-.294-.164c-.015-.007-.034-.013-.052-.02l.008.029c.01.046.019.093.031.14l.01.032.007.02.014.03.01.017a.293.293 0 00.03.036l.002.002.003.002c.003 0 .005.002.008.003a.21.21 0 00.01.004l.006-.002.028.007h.024l.01-.002.006-.001.013-.004.006-.002c.009-.002.009-.002.001 0-.008.003-.008.003 0 0a.104.104 0 00.013-.005c.036-.017.086-.01.112.024.024.03.032.08.005.113a.206.206 0 01-.068.058.27.27 0 01-.163.009.121.121 0 01-.085-.061l.031.036a.426.426 0 01-.182-.25 1.11 1.11 0 01-.033-.149c-.009-.055-.023-.107-.037-.16v-.005a.207.207 0 01-.061-.06c-.019-.03.001-.076.031-.09zm.027-.865c.062-.076.214-.088.306-.099a1.414 1.414 0 01.674.084c.095.036.232.086.29.175.02.03.005.086-.04.079-.097-.016-.187-.081-.279-.116a1.386 1.386 0 00-.767-.057c-.05.01-.106.03-.157.016-.033-.01-.047-.055-.027-.082zm-3.003 2.175c.046.007.072.04.106.068.038.031.08.058.119.089.075.06.158.112.243.159.083.045.173.081.265.108.056.016.114.025.171.034a.165.165 0 01-.02-.06c-.004-.04.027-.067.066-.057.049.013.09.058.124.095.038.04.074.083.113.123a.967.967 0 00.265.198c.08.038.17.058.258.056.093-.003.17-.041.252-.08.04-.019.085.03.058.068-.126.172-.405.161-.584.097a.945.945 0 01-.313-.196c-.029-.027-.056-.056-.084-.084a.062.062 0 01-.025.009.862.862 0 01-.318-.043 1.491 1.491 0 01-.307-.122 1.259 1.259 0 01-.26-.185.749.749 0 01-.103-.12c-.027-.039-.063-.078-.06-.127 0-.016.017-.033.034-.03zm.631 1.698c.065.064.116.147.172.219.054.07.11.137.166.204.055.064.112.125.176.18.032.026.066.05.1.074.037.023.082.04.097.084.011.033-.002.06-.036.071-.046.014-.086-.014-.123-.037a1.045 1.045 0 01-.108-.078 1.613 1.613 0 01-.198-.195 2.538 2.538 0 01-.164-.217c-.056-.08-.124-.162-.168-.25-.028-.055.046-.095.086-.055z" fill="#fff"/><path d="M18.787 20.696a4.882 4.882 0 10-3.196-9.227 4.882 4.882 0 003.196 9.227z" stroke="#662549" stroke-miterlimit="10" stroke-linecap="round" stroke-linejoin="round"/><path d="M16.802 24.815L4.826 26.773a.918.918 0 01-1.055-.758L.012 3.025A.919.919 0 01.771 1.97L12.747.012a.918.918 0 011.055.759l3.759 22.99a.919.919 0 01-.759 1.054z" fill="#fff"/><path d="M16.227 24.19L5.172 25.996a.858.858 0 01-.985-.708L.637 3.58a.858.858 0 01.709-.985L12.4.788a.858.858 0 01.985.709l3.55 21.707a.858.858 0 01-.709.985z" stroke="#662549" stroke-miterlimit="10" stroke-linecap="round" stroke-linejoin="round"/><path d="M14.657 12.372c-.294.006-.545-.181-.808-.287-.32-.13-.623-.088-.951-.015-.172.038-.343.069-.519.04-.186-.03-.36-.11-.543-.157a1.383 1.383 0 00-.278-.04 3.131 3.131 0 00-.192-.313c.05-.07.097-.142.145-.21a2.89 2.89 0 01.704-.708c.244-.173.574-.264.774-.493.205-.237.147-.544.116-.828-.037-.34.092-.69.405-.862.102-.057.062-.222-.062-.202-.366.057-.748.125-1.071.317-.152.09-.282.205-.389.345-.114.15-.203.313-.368.415-.155.096-.329.155-.481.258a1.65 1.65 0 00-.365.339 1.63 1.63 0 00-.337.749 3.144 3.144 0 00-.723-.329c.16-.315.61-.39.803-.69.192-.3.149-.665.229-.997.082-.342.338-.597.55-.863.225-.281.376-.577.355-.945-.014-.248-.078-.49-.064-.74a1.79 1.79 0 01.205-.725c.042-.081-.06-.143-.128-.12-.857.293-1.015 1.293-1.444 1.969-.416.656-1.231.968-1.549 1.698-.175.403-.165.88.027 1.275a2.375 2.375 0 00-.146.006.457.457 0 00-.035-.07c-.088-.148-.232-.263-.299-.423-.128-.305.072-.65-.025-.966-.096-.31-.399-.387-.66-.513-.39-.19-.438-.632-.446-1.021-.002-.068-.055-.11-.121-.087-.336.12-.402.513-.43.822-.017.186-.031.38.029.56.06.181.22.303.281.48.059.168-.005.353-.03.521a.767.767 0 00.065.478c.13.247.363.395.616.489a3.03 3.03 0 00-.215.106c-.148-.107-.32-.113-.486-.176-.18-.068-.255-.268-.353-.418a2.467 2.467 0 00-.372-.44 2.555 2.555 0 00-.943-.556c-.374-.128-.729-.236-.986-.555-.261-.324-.444-.697-.72-1.011-.062-.071-.172 0-.138.087.134.342.082.724.1 1.083.021.395.186.706.391 1.035l.655 1.05c.188.303.368.616.656.834.25.19.584.341.906.392l-.027.052a.966.966 0 00-.44-.124c-.325-.019-.632.093-.95.135-.176.023-.342.01-.515-.03-.156-.036-.31-.084-.47-.094-.255-.017-.529.056-.676.279-.044.067-.01.174.08.179.543.027.988.41 1.524.475.154.019.31.003.465.015.17.014.327.077.491.118.062.016.128.026.195.03a3.138 3.138 0 00-.024.326c-.396-.186-.883.072-1.21.322-.24.182-.473.399-.767.49-.224.068-.65-.005-.619.356.006.073.094.11.155.082.234-.104.5.015.711.123.2.102.398.216.624.251.232.037.473-.019.684-.115.118-.053.23-.122.336-.195.088-.06.192-.123.262-.208.03.089.065.175.104.26a.895.895 0 00-.512.296c-.103.12-.156.266-.212.411a1.06 1.06 0 01-.264.414c-.227.218-.473.395-.634.672-.16.275-.245.587-.239.905.003.126.165.18.222.053a.741.741 0 01.294-.33c.152-.091.322-.097.492-.127.323-.057.504-.257.708-.496a.877.877 0 01.33-.267c.163-.066.333-.086.483-.184a1 1 0 00.219-.199c.046.037.092.076.14.111a1.157 1.157 0 00-.36.57c-.114.377-.07.774-.06 1.162.01.407-.039.81-.233 1.174-.086.16-.189.311-.27.475-.084.173-.13.36-.148.552a3.27 3.27 0 00-.01.678c.021.192.112.365.293.447.068.03.133-.036.126-.102-.04-.381.355-.618.639-.775.32-.179.609-.374.745-.73.142-.369.11-.766.081-1.152-.016-.214-.04-.437 0-.65.036-.206.156-.334.313-.46.197-.16.352-.35.441-.573.008.194.087.39.199.543.089.122.208.216.303.332.093.113.143.249.191.385.094.263.216.492.417.689.202.198.44.352.68.502.133.083.258-.095.14-.196-.208-.18-.122-.497-.056-.723.075-.261.139-.512.053-.78-.041-.13-.115-.253-.146-.386-.035-.15-.015-.306.002-.457l.002-.022c.19.149.408.261.642.331.175.053.355.083.537.09.18.005.363-.01.54.023.38.071.53.472.8.703.273.235.63.345.976.414.45.089.914.107 1.342.288.133.057.224-.131.116-.216-.287-.226-.57-.457-.84-.704a5.486 5.486 0 01-.694-.806c-.19-.257-.397-.497-.694-.63-.158-.07-.33-.113-.472-.216-.14-.101-.238-.25-.335-.39-.119-.173-.26-.355-.44-.465.043 0 .087-.003.13-.008.153-.017.304-.052.457-.06.162-.008.32.028.474.073.278.082.559.186.853.149.297-.038.503-.285.792-.333.124-.032.098-.222-.033-.2-.274.068-.499-.17-.706-.312-.235-.161-.491-.158-.757-.232-.33-.093-.697-.303-1.06-.35 0-.013.002-.024.003-.036.096.023.193.037.284.035.313-.007.565-.143.783-.36.111-.11.215-.23.344-.32.134-.094.29-.122.45-.133.327-.023.66.013.935-.201.075-.058.042-.214-.064-.211z" fill="#662549"/><path d="M7.347 13.834c-.124-.118-.3-.194-.473-.15a.397.397 0 00-.238.16.383.383 0 00-.06.236.356.356 0 00.032.203c.08.149.24.232.405.235.177.003.365-.05.446-.222.075-.159.01-.348-.112-.462zm3.521-.708a.512.512 0 00-.49-.083c-.17.055-.315.23-.285.414-.002.012-.004.024-.004.035a.307.307 0 00.135.271c.073.047.16.066.245.076.18.023.392-.016.497-.18a.383.383 0 00.054-.287.45.45 0 00-.152-.246zm-1.516.604a.463.463 0 00-.41.05c-.072.045-.106.116-.17.168-.119.099-.101-.113-.099-.177a3.09 3.09 0 00-.161-1.102c-.106-.321-.257-.669-.506-.906-.218-.206-.545-.32-.829-.18-.085.043-.026.17.062.135.354-.14.672.122.845.41.182.304.297.652.363 1 .033.178.05.358.055.54.004.136-.023.303.094.402.092.078.218.054.301-.024.054-.051.093-.11.161-.146a.405.405 0 01.258-.024c.086.013.114-.115.036-.146zm-.218.693c-.014-.02-.045-.03-.068-.026a.094.094 0 00-.06.034l-.013.018-.019.024a.32.32 0 01-.044.036.237.237 0 01-.036.016c-.023.006-.047.008-.07.016-.02.006-.033.03-.035.048a.06.06 0 00.025.055c.032.025.078.026.116.024a.277.277 0 00.094-.024.275.275 0 00.12-.119.115.115 0 00.012-.037.1.1 0 00-.022-.065zm.91.286c-.067-.035-.174.034-.238.059-.075.028-.15.053-.23.069a.974.974 0 01-.32.017l-.037-.007c-.006-.046-.042-.086-.099-.078-.072.01-.11.079-.166.117l-.002.002-.002.001a.416.416 0 01-.06.028l-.008.003a.294.294 0 01-.067.012h-.008a.325.325 0 01-.06-.005l-.019-.004h-.002a.06.06 0 00-.007-.003l-.036-.012a.434.434 0 01-.022-.01l-.002-.002h-.002a.349.349 0 01-.036-.025c-.025-.019-.048-.043-.079-.053a.08.08 0 00-.105.076 2.398 2.398 0 00-.136.08c-.04.026-.08.056-.123.078a.628.628 0 01-.131.048c-.05.012-.112.016-.158.041-.057.032-.042.109.02.122.052.011.116-.005.168-.015a.733.733 0 00.157-.049c.05-.022.094-.056.14-.088a.715.715 0 01.133-.073c.007-.002.012-.008.018-.012.08.064.189.099.284.097a.477.477 0 00.317-.124l.038-.036c.051.026.12.036.167.04a.905.905 0 00.254-.013 1.65 1.65 0 00.26-.077 3.09 3.09 0 00.125-.05c.04-.017.09-.04.104-.085.009-.03-.003-.055-.03-.069zm-.81.626a.668.668 0 01-.314.09.93.93 0 01-.16-.007c-.061-.007-.136-.033-.196-.005-.045.023-.059.094-.011.124.033.02.072.027.11.035.032.008.065.014.098.02.064.01.13.013.194.01a.722.722 0 00.373-.117c.082-.056-.007-.201-.094-.15zm1.063-4.145c-.215-.11-.464-.114-.696-.07a2.102 2.102 0 00-.364.103c-.108.042-.252.095-.328.186-.028.033 0 .098.047.088.11-.024.216-.097.32-.14a1.99 1.99 0 01.327-.1c.214-.045.44-.052.641.047.073.037.125-.077.053-.114z" fill="#fff"/><path d="M7.5 12.288a1.044 1.044 0 00-.395-.027.974.974 0 00-.373.13c-.093.055-.257.155-.268.276-.002.02.006.045.024.055a.268.268 0 00.013.007c.044.018.078-.022.107-.047.048-.04.094-.083.146-.119l.018-.01c.017.038.041.073.064.107.021.03.041.064.065.093.055.066.13.097.215.1a.612.612 0 00.234-.034.406.406 0 00.2-.136.091.091 0 00-.003-.109c-.023-.028-.072-.043-.106-.024-.03.017-.058.038-.087.058l-.005.003a.41.41 0 01-.063.032.492.492 0 01-.139.03h-.011l-.04-.003c-.02-.002-.013 0-.029-.007-.005-.003-.006-.003-.001 0l-.009-.006a.233.233 0 01-.015-.011c.006.005-.007-.008-.008-.009a.087.087 0 01-.013-.015c-.04-.046-.075-.095-.117-.139a.837.837 0 01.7.014c.056.027.099.062.163.064.045.001.077-.04.06-.083-.047-.113-.217-.162-.327-.19zm1.906-.312c.112-.072.235-.125.365-.15a.978.978 0 01.396.003c.105.023.293.066.342.176.008.018.008.045-.006.06a.2.2 0 01-.01.011c-.036.031-.08.004-.117-.01-.058-.023-.115-.049-.175-.066l-.02-.004c-.005.041-.017.082-.028.121-.01.037-.018.074-.032.11a.286.286 0 01-.172.163.61.61 0 01-.232.041.406.406 0 01-.234-.064.09.09 0 01-.03-.104c.012-.035.054-.064.092-.057.034.007.067.018.1.027l.007.002a.365.365 0 00.07.01.463.463 0 00.141-.016l.003-.001.008-.003.036-.015c.018-.009.013-.005.025-.016.005-.004.005-.005.002 0l.006-.009a.22.22 0 00.016-.026l.008-.019c.022-.056.04-.114.066-.169a.837.837 0 00-.66.236c-.044.044-.073.09-.133.113-.042.015-.086-.013-.083-.06.008-.121.154-.222.25-.284z" fill="#fff"/><path d="M9.25 16.192c-.289.01-.575.03-.863-.005a2.967 2.967 0 01-2.092-1.264c-.641-.924-.718-2.18-.116-3.142.149-.238.33-.455.541-.641.223-.196.471-.34.733-.474.1-.052.032-.192-.072-.157-.508.173-.955.571-1.267 1a3.01 3.01 0 00-.574 1.547c-.087 1.261.636 2.488 1.759 3.055.298.15.621.252.95.305.338.054.703.071 1.034-.026.123-.037.096-.202-.033-.198zm2.523-3.752a3.168 3.168 0 00-1.31-1.732c-.337-.22-.711-.407-1.114-.46-.053-.007-.071.071-.022.09.321.119.635.248.92.44.287.194.532.442.745.713.46.587.763 1.347.595 2.097a3.31 3.31 0 01-.213.611c-.092.209-.218.406-.299.618-.045.119.122.212.197.106.12-.171.208-.376.296-.565.09-.195.17-.395.227-.602.12-.441.11-.878-.022-1.316z" fill="#fff"/></svg>