<svg width="127" height="126" fill="none" xmlns="http://www.w3.org/2000/svg"><g id="Group 14" fill="#F2E2F1"><path id="Vector" d="M124.915 70.16c-8.41 16.742-26.863 26.781-45.276 28.93-13.342 1.558-26.915-3.036-36.968-11.797C19.73 67.298 15.694 21.639 47.054 0 20.289 5.462.038 32.57 0 59.984c-.038 27.415 17.668 53.059 44.104 62.655 16.83 6.11 37.882 2.055 53.104-7.856 15.222-9.912 24.951-25.14 27.707-44.623z"/><path id="Vector_2" d="M122.321 26.78l4.678-.822-4.65-.922 2.751-3.86-4.028 2.649-.945-4.728-.813 4.67-3.924-2.66 2.701 3.906-4.667.798 4.688.907-2.79 3.876 4.044-2.687.929 4.765.798-4.708 3.94 2.699-2.712-3.882z"/><path id="Vector_3" d="M86.733 45.044l19.131-3.364-19.02-3.77L98.1 22.12 81.625 32.957 77.759 13.62l-3.327 19.102-16.047-10.884 11.049 15.976-19.09 3.265 19.176 3.709-11.411 15.85L74.648 49.65l3.8 19.489 3.263-19.257 16.112 11.04-11.09-15.878z"/><path id="Vector_4" d="M110.078 58.07c0-.536.425-.972.948-.972a.96.96 0 01.948.973.96.96 0 01-.948.973.961.961 0 01-.948-.973z"/><path id="Vector_5" d="M42.082 26.78c0-1.103.87-1.996 1.945-1.996 1.075 0 1.945.893 1.945 1.996 0 1.102-.87 1.996-1.945 1.996-1.074 0-1.945-.894-1.945-1.996z"/><path id="Vector_6" d="M60.965 79.908c0-1.102.87-1.996 1.945-1.996 1.075 0 1.945.893 1.945 1.996s-.87 1.997-1.945 1.997c-1.074 0-1.945-.895-1.945-1.997z"/></g></svg>