<svg width="130" height="129" fill="none" xmlns="http://www.w3.org/2000/svg"><g id="Group"><path id="Vector" d="M74.192 65.065l-.19-.353c-.607-1.133-2.864-4.499-8.242-4.953a4.801 4.801 0 00-.689-.055c-.06 0-.12.007-.18.01a15.637 15.637 0 00-1.424.025c-4.09.267-7.182 3.254-8.587 5.731l-.286.506.51.277c3.24 1.763 6.436 2.695 9.502 2.771.131.003.26.004.389.004l.034-.001.043.002c.168 0 .332-.009.496-.026 3.397-.13 6.341-1.394 8.356-3.64l.268-.298zm-5.541-.698c0 1.82-1.41 3.32-3.213 3.502-.183.006-.366.01-.55.01-1.889-.096-3.396-1.632-3.396-3.512 0-1.873 1.496-3.405 3.375-3.51.238.006.477.01.703.028 1.738.239 3.081 1.707 3.081 3.482zm-7.1-3.097a4.604 4.604 0 00-1.202 3.097c0 1.214.477 2.318 1.25 3.148-1.773-.376-3.585-1.037-5.418-1.984 1.088-1.674 2.963-3.476 5.37-4.26zm7.161 6.062a4.593 4.593 0 00.203-5.663c2.171.916 3.346 2.379 3.877 3.232-1.102 1.121-2.496 1.936-4.08 2.431z" fill="#F2E2F1"/><path id="Vector_2" d="M109.497 80.138c-3.278-2-6.124-4.747-8.877-7.403l-.687-.663c-3.146-3.026-6.286-5.902-10.103-7.83-1.974-.996-4.525-1.787-7.133-2.056 3.502-.59 7.133-.565 10.894-.538 4.315.03 8.777.064 13.12-.917a28.918 28.918 0 0016.035-9.969l1.225-1.513-1.848.612c-3.594 1.19-7.792 2.478-12.142 2.69-3.834.188-7.734-.482-11.505-1.13l-.938-.16c-4.304-.734-8.517-1.349-12.758-.795-2.938.383-5.607 1.361-7.774 2.8 2.684-2.963 6.007-5.363 9.47-7.858 3.535-2.547 7.191-5.181 10.125-8.503a28.92 28.92 0 007.174-17.465l.109-1.944-1.142 1.578c-2.218 3.067-4.87 6.567-8.273 9.286-3 2.395-6.553 4.131-9.988 5.81l-.86.422c-3.92 1.922-7.697 3.89-10.812 6.819-2.528 2.376-4.28 5.199-5.075 8.074.04-4.52 1.326-8.978 2.676-13.64 1.227-4.24 2.496-8.624 2.73-13.07a28.922 28.922 0 00-5.247-18.138l-1.124-1.59.087 1.946c.17 3.782.271 8.172-.703 12.417-.86 3.744-2.562 7.315-4.209 10.768l-.409.859c-1.492 3.142-3.346 8.01-3.648 13.276-.237-1.9-.382-3.849-.528-5.837-.328-4.454-.667-9.06-2.178-13.349A28.924 28.924 0 0043.418 8.36l-1.646-1.042.823 1.766c1.6 3.43 3.366 7.45 4.083 11.746.633 3.789.42 7.738.215 11.557l-.052.953c-.228 4.36-.346 8.617.695 12.763.609 2.422 1.847 5.283 3.735 7.637-3.252-2.338-6.024-5.404-8.907-8.597-2.957-3.276-6.016-6.665-9.671-9.204a28.917 28.917 0 00-18.18-5.095l-1.944.118 1.7.95c3.304 1.847 7.089 4.073 10.184 7.138 2.728 2.702 4.866 6.03 6.933 9.246l.517.804c2.365 3.67 4.76 7.192 8.03 9.945a15.706 15.706 0 003.08 2.012c-2.552-.613-5.11-1.464-7.735-2.338-4.187-1.396-8.517-2.84-12.95-3.251a28.936 28.936 0 00-18.332 4.516l-1.634 1.06 1.947-.01c3.796-.023 8.178.056 12.379 1.2 3.708 1.009 7.209 2.854 10.595 4.64l.838.44c3.866 2.03 7.684 3.917 11.886 4.703 1.193.223 2.412.332 3.62.332 1.778 0 3.53-.238 5.142-.687-3.548 2.066-7.586 3.335-11.796 4.652-4.213 1.317-8.569 2.679-12.405 4.939A28.925 28.925 0 0012.34 95.64l-.705 1.816 1.574-1.148c3.06-2.23 6.664-4.738 10.742-6.269 3.597-1.35 7.516-1.902 11.305-2.436l.939-.132c4.322-.615 8.522-1.318 12.392-3.138a20.105 20.105 0 003.126-1.828c-1.6 1.971-3.402 3.83-5.251 5.738-2.976 3.066-6.053 6.237-8.346 10.05a28.922 28.922 0 00-3.89 18.477l.246 1.932.836-1.759c1.625-3.418 3.598-7.34 6.454-10.631 2.519-2.902 5.7-5.255 8.779-7.53l.76-.564c3.508-2.601 6.864-5.222 9.397-8.665 1.724-2.345 2.919-4.97 3.492-7.547.302 4.008-.3 8.063-.934 12.286-.645 4.293-1.31 8.733-.94 13.177a28.912 28.912 0 007.654 17.26l1.33 1.423-.351-1.915c-.68-3.725-1.375-8.06-.984-12.398.344-3.826 1.548-7.595 2.712-11.24l.29-.905c1.32-4.162 2.51-8.25 2.55-12.526a20.143 20.143 0 00-.233-3.256c.99 2.203 1.818 4.521 2.665 6.896 1.428 4.009 2.906 8.153 5.31 11.897a28.919 28.919 0 0014.848 11.664l1.841.635-1.206-1.529c-2.346-2.97-4.99-6.476-6.678-10.491-1.487-3.541-2.19-7.435-2.868-11.2l-.17-.937c-.78-4.295-1.644-8.463-3.613-12.261-1.233-2.38-2.85-4.386-4.696-5.892 3.523 1.486 6.765 3.652 10.133 5.905 3.562 2.384 7.246 4.848 11.347 6.462a28.858 28.858 0 0010.558 1.995c2.801 0 5.605-.406 8.307-1.22l1.864-.563-1.872-.534c-3.645-1.035-7.84-2.332-11.557-4.6zM89.315 65.261c3.676 1.857 6.745 4.67 9.826 7.634l.686.661c2.797 2.7 5.69 5.49 9.075 7.557 2.31 1.41 4.78 2.45 7.191 3.285-4.206-.487-8.253-1.735-12.273-3.795-2.449-1.255-4.761-3.163-6.996-5.008-1.541-1.272-3.134-2.586-4.754-3.67-4.188-2.802-8.975-4.619-15.054-5.716.036-.389.057-.782.057-1.18 0-.404-.021-.804-.058-1.198.149-.065.298-.128.448-.189 3.863-1.057 8.654.005 11.852 1.62zm-16.201 7.284c-.037.022-.077.038-.11.07a.563.563 0 00-.13.193 11.495 11.495 0 01-5.274 3.263.573.573 0 00-.247.011.582.582 0 00-.197.103 11.44 11.44 0 01-2.718.338c-1.288 0-2.521-.222-3.678-.614a.564.564 0 00-.423-.156c-4.315-1.656-7.392-5.831-7.392-10.722 0-6.338 5.156-11.493 11.493-11.493 6.337 0 11.493 5.156 11.493 11.493 0 2.873-1.068 5.497-2.817 7.514zm33.345-12.928c-4.214.952-8.608.917-12.86.89-5.52-.041-11.219-.078-16.52 2.06-.08.022-.157.05-.235.074-.163-.85-.41-1.669-.735-2.45 5.347-2.337 10.08-3.454 14.852-3.49 1.89-.013 3.919.176 5.88.358 2.948.274 5.994.558 8.848.202 4.926-.612 9.343-2.035 13.428-4.3a27.781 27.781 0 01-12.658 6.656zm-21.533-8.019c4.085-.531 8.204.07 12.419.787l.937.16c3.831.66 7.795 1.343 11.755 1.147 2.703-.132 5.33-.662 7.794-1.327-3.753 1.963-7.8 3.206-12.283 3.762-2.731.34-5.715.063-8.601-.206-1.99-.185-4.058-.378-5.995-.362-4.94.038-9.826 1.189-15.331 3.599a12.709 12.709 0 00-1.224-1.89c.024-.024.054-.04.075-.07 2.152-2.972 5.962-5.014 10.454-5.6zm10.818-15.449c-2.85 3.225-6.453 5.821-9.937 8.332-4.6 3.315-9.345 6.742-12.406 11.653a12.76 12.76 0 00-2.01-1.646c2.991-5.089 6.2-8.794 10.078-11.637 1.527-1.118 3.281-2.151 4.978-3.15 2.55-1.502 5.188-3.055 7.295-5.012 3.637-3.379 6.387-7.116 8.376-11.343a27.79 27.79 0 01-6.374 12.803zM73.59 42.243c3-2.82 6.694-4.745 10.532-6.627l.859-.42c3.49-1.706 7.101-3.47 10.199-5.945 2.116-1.69 3.936-3.656 5.545-5.636-1.895 3.787-4.45 7.164-7.76 10.238-2.017 1.873-4.6 3.393-7.098 4.864-1.721 1.013-3.501 2.062-5.074 3.214-4.006 2.935-7.31 6.748-10.383 11.97-.65-.35-1.335-.644-2.048-.877.01-.04.025-.08.026-.123.006-3.671 1.901-7.556 5.202-10.658zm-1.593-19.528c-.226 4.315-1.476 8.635-2.686 12.813-1.605 5.548-3.257 11.28-2.543 17.086a12.637 12.637 0 00-2.33-.218l-.079.001c-.851-5.922-.653-10.87.63-15.555.5-1.825 1.23-3.725 1.937-5.563 1.062-2.762 2.162-5.618 2.594-8.462.747-4.908.575-9.545-.497-14.092a27.768 27.768 0 012.974 13.99zM61.055 52.703c-4.324-8.297-.91-18.082 1.51-23.176l.41-.857c1.673-3.509 3.403-7.138 4.29-11.005.606-2.638.808-5.31.837-7.863.871 4.144.97 8.377.29 12.844-.414 2.722-1.49 5.518-2.531 8.223-.718 1.865-1.46 3.792-1.974 5.673-1.317 4.812-1.528 9.878-.67 15.914-.724.07-1.43.202-2.112.39l-.017-.031c-.011-.038-.014-.076-.033-.112zm-6.952-29.197c1.46 4.146 1.794 8.675 2.116 13.054.419 5.69.858 11.57 3.778 16.644-.55.207-1.085.451-1.596.73-3.073-5.18-4.788-9.851-5.391-14.695-.234-1.877-.282-3.914-.33-5.882-.07-2.96-.143-6.018-.827-8.813-1.18-4.82-3.107-9.042-5.83-12.836a27.803 27.803 0 018.08 11.798zM47.98 33.4l.05-.952c.21-3.881.425-7.894-.228-11.807-.446-2.67-1.277-5.217-2.224-7.587 2.386 3.498 4.09 7.375 5.165 11.762.655 2.673.725 5.67.795 8.567.048 1.997.097 4.062.338 5.997.624 5.008 2.388 9.823 5.548 15.147a12.74 12.74 0 00-1.842 1.503c-3.762-2.147-6.051-6.67-6.94-10.205-1.004-3.993-.887-8.156-.662-12.425zm-6.465 12.508c3.858 4.275 7.848 8.685 13.137 11.142a12.7 12.7 0 00-1.334 1.988c-5.52-2.404-9.641-5.189-12.962-8.762-1.288-1.387-2.519-3.009-3.708-4.578-1.789-2.36-3.637-4.797-5.826-6.663-3.779-3.22-7.811-5.518-12.241-7a27.79 27.79 0 0113.458 4.841c3.547 2.466 6.561 5.803 9.476 9.032zm-8.654 2.573l-.517-.802c-2.1-3.27-4.273-6.65-7.091-9.44-1.924-1.905-4.088-3.485-6.241-4.853 3.98 1.441 7.63 3.588 11.069 6.518 2.094 1.785 3.905 4.174 5.656 6.483 1.207 1.592 2.455 3.238 3.782 4.666 3.424 3.684 7.654 6.55 13.302 9.013-.221.516-.407 1.05-.559 1.598-4.054.454-8.494-.88-11.596-3.491-3.15-2.652-5.489-6.098-7.805-9.692zm-10.64 8.124c4.301.399 8.568 1.822 12.694 3.197 5.504 1.835 11.19 3.724 17.05 3.22a12.658 12.658 0 00-.162 2.009c0 .131.006.26.01.39-.032 0-.06-.011-.093-.008-6.02.636-10.997.242-15.665-1.239-1.804-.572-3.674-1.38-5.482-2.16-2.718-1.172-5.527-2.384-8.35-2.93-4.876-.943-9.515-.957-14.101-.067a27.783 27.783 0 0114.099-2.412zm17.993 14.289c-4.046-.757-7.78-2.604-11.566-4.592l-.835-.44c-3.441-1.813-6.999-3.69-10.828-4.73-2.613-.711-5.276-1.02-7.826-1.152 4.176-.705 8.41-.634 12.847.224 2.702.523 5.453 1.71 8.114 2.858 1.834.793 3.73 1.61 5.59 2.2 3.352 1.064 6.85 1.586 10.747 1.586 1.71 0 3.497-.1 5.383-.3.02-.002.036-.013.054-.017.092.775.252 1.53.478 2.255-3.01 2.103-7.752 2.934-12.158 2.108zM25.146 82.237c3.722-2.193 8.014-3.535 12.165-4.833 5.484-1.715 11.144-3.492 15.58-7.252.33.74.728 1.441 1.187 2.099-4.457 3.963-8.682 6.518-13.284 8.03-1.798.592-3.786 1.032-5.71 1.457-2.889.638-5.877 1.298-8.486 2.508-4.505 2.087-8.277 4.79-11.476 8.194a27.783 27.783 0 0110.024-10.203zM48.098 83.3c-3.727 1.753-7.834 2.44-12.066 3.041l-.937.132c-3.851.542-7.833 1.103-11.549 2.497-2.534.951-4.873 2.258-7.016 3.643 2.973-3.014 6.449-5.433 10.547-7.332 2.497-1.157 5.423-1.803 8.253-2.429 1.95-.431 3.967-.877 5.82-1.486 4.733-1.556 9.07-4.17 13.624-8.208.467.554.98 1.068 1.535 1.535-.3.83-.648 1.626-1.032 2.394-1.504 2.53-4.014 4.723-7.179 6.213zm-9.006 15.583c2.226-3.702 5.255-6.824 8.186-9.844 3.335-3.437 6.76-6.975 8.982-11.37.426-.714.777-1.454 1.05-2.213.72.493 1.493.914 2.308 1.252-2.002 5.412-4.458 9.558-7.703 12.997-1.298 1.376-2.838 2.71-4.325 4.002-2.236 1.938-4.547 3.942-6.265 6.249-2.965 3.982-4.992 8.156-6.182 12.672a27.785 27.785 0 013.949-13.745zm20.683-10.007c-2.439 3.317-5.722 5.878-9.157 8.426l-.76.562c-3.127 2.312-6.36 4.703-8.961 7.7-1.775 2.046-3.209 4.309-4.433 6.548 1.177-4.067 3.08-7.851 5.777-11.474 1.644-2.207 3.908-4.17 6.098-6.07 1.51-1.308 3.07-2.662 4.408-4.08 3.355-3.556 5.888-7.826 7.946-13.39.862.269 1.765.443 2.695.52.308 3.563-1.02 7.733-3.613 11.258zm4.607 5.586c.829-5.52 1.677-11.22.254-16.802a12.63 12.63 0 002.485-.284c1.542 5.56 1.983 10.363 1.364 15.053-.249 1.875-.716 3.857-1.168 5.773-.678 2.881-1.381 5.86-1.425 8.736-.075 4.964.723 9.535 2.401 13.895a27.788 27.788 0 01-4.84-13.458c-.361-4.313.295-8.685.93-12.913zm9.99-7.303c-.037 4.117-1.202 8.115-2.497 12.19l-.288.904c-1.184 3.704-2.407 7.534-2.763 11.485-.242 2.696-.08 5.371.236 7.904-1.425-3.987-2.095-8.169-2.026-12.686.041-2.752.729-5.67 1.394-8.491.459-1.944.932-3.954 1.188-5.886.64-4.843.19-9.787-1.392-15.493a12.595 12.595 0 002.105-.883c.658.7 1.261 1.425 1.81 2.177 1.468 2.4 2.265 5.46 2.234 8.78zm9.846 14.93c-2.334-3.634-3.789-7.716-5.196-11.664-1.544-4.331-3.133-8.78-5.896-12.619a13.028 13.028 0 00-1.716-2.245 12.78 12.78 0 002.025-1.67c3.956 4.181 6.58 8.211 8.227 12.637.66 1.774 1.176 3.743 1.674 5.648.75 2.863 1.525 5.824 2.833 8.385 2.26 4.421 5.106 8.086 8.63 11.152a27.793 27.793 0 01-10.58-9.624zm.178-22.977c1.895 3.657 2.739 7.735 3.504 11.94l.169.936c.69 3.826 1.403 7.782 2.94 11.439 1.048 2.496 2.444 4.784 3.91 6.872-3.127-2.855-5.679-6.235-7.733-10.258-1.253-2.45-2.012-5.35-2.746-8.154-.506-1.932-1.029-3.93-1.708-5.757-1.711-4.598-4.43-8.77-8.53-13.09a12.77 12.77 0 001.279-1.879c.026.013.049.032.078.04 3.531 1.007 6.752 3.89 8.837 7.912zM102.612 84c-3.985-1.569-7.618-4-11.13-6.349-4.746-3.175-9.653-6.45-15.453-7.597.373-.859.653-1.767.828-2.712 5.898 1.07 10.536 2.828 14.578 5.533 1.573 1.052 3.143 2.348 4.662 3.602 2.282 1.883 4.643 3.831 7.202 5.143 4.401 2.255 8.833 3.575 13.465 4.004A27.785 27.785 0 01102.612 84z" fill="#F2E2F1"/><g id="Group_2"><g id="Group_3"><path id="Vector_3" d="M85.487 17.426a.572.572 0 01-.527-.791l4.995-11.931a.572.572 0 011.053.44l-4.994 11.932a.572.572 0 01-.527.35z" fill="#F2E2F1"/></g><g id="Group_4"><path id="Vector_4" d="M90.106 19.35a.569.569 0 01-.487-.869l3.961-6.5a.57.57 0 11.975.595l-3.962 6.5a.57.57 0 01-.487.273z" fill="#F2E2F1"/></g><g id="Group_5"><path id="Vector_5" d="M80.968 15.686a.571.571 0 01-.557-.698l1.45-6.352a.57.57 0 011.113.254l-1.45 6.353a.57.57 0 01-.556.443z" fill="#F2E2F1"/></g></g><g id="Group_6"><g id="Group_7"><path id="Vector_6" d="M110.296 40.56a.571.571 0 01-.27-1.075l11.405-6.103a.572.572 0 01.539 1.008l-11.405 6.102a.565.565 0 01-.269.068z" fill="#F2E2F1"/></g><g id="Group_8"><path id="Vector_7" d="M112.667 44.967a.57.57 0 01-.191-1.108l7.175-2.541a.57.57 0 11.381 1.075l-7.175 2.541a.56.56 0 01-.19.033z" fill="#F2E2F1"/></g><g id="Group_9"><path id="Vector_8" d="M107.89 36.358a.57.57 0 01-.352-1.021l5.135-4.011a.57.57 0 11.702.9l-5.135 4.01a.564.564 0 01-.35.122z" fill="#F2E2F1"/></g></g><g id="Group_10"><g id="Group_11"><path id="Vector_9" d="M129.429 69.57a.542.542 0 01-.061-.003l-12.861-1.37a.571.571 0 01.12-1.135l12.862 1.37a.57.57 0 01-.06 1.138z" fill="#F2E2F1"/></g><g id="Group_12"><path id="Vector_10" d="M123.409 75.114a.577.577 0 01-.145-.02l-7.362-1.935a.57.57 0 01.29-1.104l7.362 1.935a.571.571 0 01-.145 1.124z" fill="#F2E2F1"/></g><g id="Group_13"><path id="Vector_11" d="M116.939 63.373a.57.57 0 01-.036-1.14l6.502-.43a.579.579 0 01.608.533.571.571 0 01-.533.607l-6.502.43h-.039z" fill="#F2E2F1"/></g></g><g id="Group_14"><g id="Group_15"><path id="Vector_12" d="M115.529 106.006a.564.564 0 01-.359-.129l-10.032-8.165a.57.57 0 11.721-.885l10.031 8.165a.57.57 0 01-.361 1.014z" fill="#F2E2F1"/></g><g id="Group_16"><path id="Vector_13" d="M107.46 107.367a.567.567 0 01-.422-.187l-5.114-5.639a.57.57 0 11.845-.767l5.114 5.638a.57.57 0 01-.423.955z" fill="#F2E2F1"/></g><g id="Group_17"><path id="Vector_14" d="M114.126 97.187a.565.565 0 01-.278-.073l-5.683-3.189a.571.571 0 01.558-.995l5.683 3.188a.571.571 0 01-.28 1.069z" fill="#F2E2F1"/></g></g><g id="Group_18"><g id="Group_19"><path id="Vector_15" d="M85.974 126.968a.572.572 0 01-.537-.376l-4.42-12.156a.57.57 0 01.342-.731.569.569 0 01.73.341l4.42 12.156a.57.57 0 01-.535.766z" fill="#F2E2F1"/></g><g id="Group_20"><path id="Vector_16" d="M78.349 123.995a.57.57 0 01-.56-.459l-1.495-7.464a.572.572 0 011.12-.224l1.495 7.463a.571.571 0 01-.56.684z" fill="#F2E2F1"/></g><g id="Group_21"><path id="Vector_17" d="M89.297 118.679a.57.57 0 01-.495-.287l-3.242-5.653a.57.57 0 11.99-.567l3.242 5.653a.57.57 0 01-.495.854z" fill="#F2E2F1"/></g></g><g id="Group_22"><g id="Group_23"><path id="Vector_18" d="M49.337 128.538a.572.572 0 01-.552-.719l3.357-12.491a.572.572 0 011.103.296l-3.356 12.491a.572.572 0 01-.552.423z" fill="#F2E2F1"/></g><g id="Group_24"><path id="Vector_19" d="M44.799 121.729a.572.572 0 01-.522-.8l3.058-6.971a.572.572 0 011.046.458l-3.06 6.97a.57.57 0 01-.522.343z" fill="#F2E2F1"/></g><g id="Group_25"><path id="Vector_20" d="M56.816 123.658l-.053-.002a.571.571 0 01-.517-.621l.59-6.49a.567.567 0 01.621-.516.57.57 0 01.517.62l-.59 6.49a.571.571 0 01-.568.519z" fill="#F2E2F1"/></g></g><g id="Group_26"><g id="Group_27"><path id="Vector_21" d="M17.196 110.501a.57.57 0 01-.4-.979l9.229-9.062a.57.57 0 11.8.815l-9.23 9.063a.572.572 0 01-.399.163z" fill="#F2E2F1"/></g><g id="Group_28"><path id="Vector_22" d="M16.74 102.33a.57.57 0 01-.334-1.034l6.171-4.456a.57.57 0 11.668.926l-6.172 4.456a.57.57 0 01-.334.108z" fill="#F2E2F1"/></g><g id="Group_29"><path id="Vector_23" d="M26.113 110.087a.57.57 0 01-.463-.904l3.8-5.293a.571.571 0 01.928.666l-3.8 5.293a.57.57 0 01-.465.238z" fill="#F2E2F1"/></g></g><g id="Group_30"><g id="Group_31"><path id="Vector_24" d="M.57 76.537a.571.571 0 01-.075-1.136l12.817-1.737a.571.571 0 01.152 1.132L.647 76.532a.578.578 0 01-.077.005z" fill="#F2E2F1"/></g><g id="Group_32"><path id="Vector_25" d="M12.706 69.844h-.01l-7.611-.124a.57.57 0 01.01-1.142h.01l7.61.124a.57.57 0 01-.01 1.142z" fill="#F2E2F1"/></g><g id="Group_33"><path id="Vector_26" d="M7.964 81.546a.57.57 0 01-.173-1.116l6.213-1.966a.57.57 0 11.345 1.088L8.136 81.52a.567.567 0 01-.172.026z" fill="#F2E2F1"/></g></g><g id="Group_34"><g id="Group_35"><path id="Vector_27" d="M16.308 45.475a.573.573 0 01-.189-.032L3.91 41.178a.571.571 0 01.376-1.078l12.211 4.265a.571.571 0 01-.188 1.11z" fill="#F2E2F1"/></g><g id="Group_36"><path id="Vector_28" d="M17.948 40.747a.57.57 0 01-.266-.067l-6.727-3.561a.571.571 0 11.534-1.01l6.727 3.562a.571.571 0 01-.268 1.076z" fill="#F2E2F1"/></g><g id="Group_37"><path id="Vector_29" d="M14.844 50.09a.523.523 0 01-.094-.007l-6.428-1.065a.57.57 0 01-.47-.656.567.567 0 01.656-.47l6.428 1.065a.57.57 0 01-.092 1.133z" fill="#F2E2F1"/></g></g><g id="Group_38"><g id="Group_39"><path id="Vector_30" d="M34.202 23.007a.57.57 0 01-.445-.213l-8.106-10.08a.572.572 0 01.89-.716l8.105 10.08a.572.572 0 01-.444.93z" fill="#F2E2F1"/></g><g id="Group_40"><path id="Vector_31" d="M38.096 19.863a.569.569 0 01-.494-.285l-3.823-6.581a.57.57 0 11.986-.573l3.824 6.581a.57.57 0 01-.493.858z" fill="#F2E2F1"/></g><g id="Group_41"><path id="Vector_32" d="M30.517 26.15a.567.567 0 01-.377-.143l-4.891-4.305a.571.571 0 01.753-.857l4.892 4.304a.571.571 0 01-.377 1z" fill="#F2E2F1"/></g></g><g id="Group_42"><g id="Group_43"><path id="Vector_33" d="M58.184 13.983a.57.57 0 01-.566-.502L56.055.64a.57.57 0 01.498-.636.564.564 0 01.636.498l1.562 12.84a.57.57 0 01-.567.64z" fill="#F2E2F1"/></g><g id="Group_44"><path id="Vector_34" d="M63.152 13.367h-.018a.572.572 0 01-.554-.588l.227-7.609c.01-.315.29-.546.588-.554.315.01.562.273.554.589l-.227 7.608a.57.57 0 01-.57.554z" fill="#F2E2F1"/></g><g id="Group_45"><path id="Vector_35" d="M53.397 14.706a.57.57 0 01-.547-.406l-1.882-6.239a.57.57 0 111.093-.33l1.882 6.239a.57.57 0 01-.546.736z" fill="#F2E2F1"/></g></g></g></svg>