<svg width="148" height="225" fill="none" xmlns="http://www.w3.org/2000/svg"><g id="Group"><g id="Group_2"><g id="Group_3"><g id="Group_4"><path id="Vector" d="M37.89 212.953c-26.28 0-37.652-23.707-37.776-23.976L0 188.734l5.316-6.111 13.122-15.077a33.665 33.665 0 008.278-22.891l-.892-40.51c-.078-3.518.45-6.99 1.564-10.33.183-.549 18.373-54.91 18.455-55.16a2.26 2.26 0 011.555-1.48 2.375 2.375 0 012.195.478c2.692 2.275 3.704 6.36 4.285 9.668.668 3.79.685 7.717.698 11.176.02 5.361-.203 11.57-3.132 17.42-1.897 3.793-3.923 7.516-5.882 11.115a1467.198 1467.198 0 00-3.95 7.34.405.405 0 01-.56.176.414.414 0 01-.175-.559c.147-.282 2.778-5.189 3.955-7.353 1.955-3.596 3.979-7.311 5.87-11.09 2.845-5.688 3.062-11.783 3.043-17.046-.012-3.427-.029-7.315-.684-11.037-.556-3.168-1.516-7.075-4.003-9.175a1.565 1.565 0 00-1.434-.314 1.443 1.443 0 00-.992.944c-.039.117-17.704 52.914-18.455 55.162a29.507 29.507 0 00-1.522 10.044l.893 40.511a34.497 34.497 0 01-8.484 23.456L.985 188.867c1.418 2.791 15.548 28.743 46.722 22.195l41.68-49.643a22.03 22.03 0 004.108-7.421l14.798-45.79a82.743 82.743 0 015.889-13.786c4.728-8.765 8.588-16.58 11.799-23.885 2.158-4.907 4.389-10.164 5.873-15.71 1.647-6.163 2.163-11.19 1.575-15.37-.372-2.66-2.37-5.76-5.07-6.344a.415.415 0 11.175-.811c3.054.659 5.306 4.099 5.719 7.039.602 4.293.08 9.43-1.598 15.7-1.498 5.602-3.742 10.895-5.915 15.834-3.219 7.324-7.089 15.155-11.829 23.943a82.026 82.026 0 00-5.827 13.643L94.286 154.25a22.81 22.81 0 01-4.264 7.702l-41.865 49.862-.14.029c-3.595.769-6.97 1.11-10.127 1.11z" fill="#291E2A"/></g></g><g id="Group_5"><g id="Group_6"><path id="Vector_2" d="M66.052 81.012a.413.413 0 01-.368-.606l14.134-26.964a59.906 59.906 0 015.916-9.152l19.88-25.342c1.232-3.259.14-6.312-.998-8.308a1.592 1.592 0 00-1.23-.801 1.666 1.666 0 00-1.428.545l-31.053 34.44A131.119 131.119 0 0057.28 62.847l-3.495 5.559a.407.407 0 01-.572.13.413.413 0 01-.132-.572l3.495-5.558a132.111 132.111 0 0113.714-18.14l31.053-34.441a2.536 2.536 0 012.134-.815c.791.088 1.47.533 1.861 1.22 1.235 2.161 2.415 5.491 1.03 9.074l-.061.107-19.92 25.39a59.228 59.228 0 00-5.831 9.022L66.42 80.79a.416.416 0 01-.368.223z" fill="#291E2A"/></g></g><g id="Group_7"><g id="Group_8"><path id="Vector_3" d="M81.171 88.927a.417.417 0 01-.358-.626l40.365-71.49c.477-.843.982-1.677 1.486-2.511.755-1.25 1.536-2.538 2.205-3.843 1.021-1.989 1.35-3.764.98-5.283-.368-1.516-1.297-2.943-2.614-4.021-.623-.506-1.557-.41-2.089.223-1.469 1.763-4.397 5.355-7.31 8.928-7.026 8.616-8.009 9.795-8.192 9.904a.415.415 0 01-.472-.682c.37-.366 4.433-5.348 8.021-9.748 2.914-3.576 5.846-7.172 7.316-8.934.823-.977 2.281-1.13 3.253-.334 1.457 1.191 2.486 2.778 2.897 4.468.417 1.717.065 3.687-1.048 5.854-.685 1.334-1.472 2.636-2.235 3.895a92.818 92.818 0 00-1.473 2.492L81.531 88.721a.42.42 0 01-.36.206z" fill="#291E2A"/></g></g><g id="Group_9"><g id="Group_10"><path id="Vector_4" d="M95.348 96.722a.417.417 0 01-.368-.607l27.45-52.92a418.37 418.37 0 012.69-5.078c1.248-2.334 2.54-4.748 3.747-7.149 3.385-6.727 4.328-12.76 2.965-18.982-.227-1.038-.515-2.128-1.083-3.037-.511-.818-1.562-1.691-2.581-1.779-.555-.042-1.04.15-1.432.585a.411.411 0 01-.586.028.416.416 0 01-.031-.587 2.516 2.516 0 012.121-.853c1.35.116 2.611 1.203 3.213 2.164.636 1.02.948 2.19 1.189 3.304 1.387 6.328.394 12.714-3.032 19.53-1.214 2.41-2.507 4.828-3.758 7.165-.902 1.688-1.804 3.375-2.685 5.073l-27.45 52.92a.415.415 0 01-.369.223z" fill="#291E2A"/></g></g></g><g id="Group_11"><g id="Group_12"><path id="Vector_5" d="M140.868 39.57a.416.416 0 01-.416-.395l-.874-17.473a1.105 1.105 0 00-.444-.825 1.082 1.082 0 00-.894-.181c-2.721.662-5.509 3.731-5.905 4.254a.42.42 0 01-.096.117.442.442 0 01-.47.048.415.415 0 01-.213-.418c.005-.043.057-.133.15-.263l-.002-.003a.075.075 0 01.013-.01c.698-.95 3.539-3.855 6.327-4.53.543-.15 1.124-.02 1.585.322.464.344.747.87.78 1.446l.875 17.476a.418.418 0 01-.394.435h-.022z" fill="#291E2A"/></g></g><g id="Group_13"><g id="Group_14"><path id="Vector_6" d="M99.589 225.002c-17.286 0-29.843-7.964-31.39-9.661-.199-.221-.196-.409-.144-.539-.06-.701-.298-3.459-.605-6.909-1.385-15.606-1.736-17.894-1.823-18.153-.127-.192-.059-.419.133-.545.191-.127.466-.039.59.146.117.175.334.5 1.928 18.482.326 3.667.575 6.555.615 7.019 1.576 1.224 23.644 16.684 51.942 5.102l-4.007-26.154a43.25 43.25 0 012.014-21.025l26.028-72.868a26.946 26.946 0 001.569-9.645l-1.023-50.122a1.602 1.602 0 00-.671-1.282 1.71 1.71 0 00-1.529-.24c-9.185 2.852-10.53 19.935-10.543 20.107l.393 29.846a23.254 23.254 0 01-3.359 11.595l-6.209 10.241a.408.408 0 01-.571.14.411.411 0 01-.139-.568l6.208-10.242a22.426 22.426 0 003.239-11.17l-.391-29.865c.053-.763 1.405-17.859 11.126-20.877a2.556 2.556 0 012.262.357c.63.454 1 1.162 1.016 1.938l1.022 50.122c.07 3.398-.475 6.74-1.617 9.943l-26.028 72.868a42.415 42.415 0 00-1.975 20.623l4.104 26.796-.3.124c-7.755 3.219-15.166 4.416-21.865 4.416z" fill="#291E2A"/></g></g><g id="Group_15"><g id="Group_16"><path id="Vector_7" d="M130.54 123.177a.413.413 0 01-.368-.224c-.333-.642-.66-1.285-.985-1.921-.913-1.791-1.777-3.482-2.737-5.15-1.625-2.823-3.229-5.007-5.043-6.873a34.931 34.931 0 00-5.397-4.534 58.362 58.362 0 01-.873-.613c-1.166-.837-2.49-1.785-3.704-2.061a.416.416 0 01-.313-.496.427.427 0 01.497-.315c1.377.315 2.772 1.315 4.003 2.194.299.215.586.419.857.604a35.665 35.665 0 015.525 4.644c1.865 1.915 3.505 4.151 5.168 7.036.972 1.687 1.838 3.388 2.757 5.189.324.636.65 1.275.981 1.914a.418.418 0 01-.177.562.456.456 0 01-.191.044z" fill="#291E2A"/></g></g></g></svg>