<svg width="134" height="134" fill="none" xmlns="http://www.w3.org/2000/svg"><g id="Group"><g id="Group_2"><path id="Vector" d="M17.056 78.18a1 1 0 01-.1-1.995 122.903 122.903 0 0026.35-5.634 1.001 1.001 0 01.63 1.899 124.938 124.938 0 01-26.778 5.725 1.16 1.16 0 01-.102.005z" fill="#F2E2F1"/></g><g id="Group_3"><path id="Vector_2" d="M49.645 70.196a1 1 0 01-.338-1.941 114.549 114.549 0 0013.704-5.966.996.996 0 011.347.43 1 1 0 01-.431 1.348 116.873 116.873 0 01-13.942 6.07 1.047 1.047 0 01-.34.059z" fill="#F2E2F1"/></g><g id="Group_4"><path id="Vector_3" d="M34.006 90.585a1 1 0 01-.283-1.959 228.848 228.848 0 0025.868-9.355 1 1 0 01.793 1.836 230.902 230.902 0 01-26.095 9.438c-.094.027-.19.04-.283.04z" fill="#F2E2F1"/></g><g id="Group_5"><path id="Vector_4" d="M25.803 108.195a1 1 0 01-.157-1.988 153.537 153.537 0 0025.058-6.224.998.998 0 011.27.624.998.998 0 01-.625 1.268 155.478 155.478 0 01-25.386 6.306.873.873 0 01-.16.014z" fill="#F2E2F1"/></g><g id="Group_6"><path id="Vector_5" d="M57.157 99.703a1 1 0 01-.424-1.906l19.103-8.921a1 1 0 01.846 1.812L57.58 99.609c-.136.063-.28.094-.422.094z" fill="#F2E2F1"/></g><g id="Group_7"><path id="Vector_6" d="M24 65.711a1 1 0 01-.168-1.985 122.07 122.07 0 0028.41-8.556.997.997 0 011.317.513.998.998 0 01-.513 1.317 124.035 124.035 0 01-28.875 8.696.985.985 0 01-.17.015z" fill="#F2E2F1"/></g><g id="Group_8"><path id="Vector_7" d="M107.476 91.623a4.705 4.705 0 01-4.699-4.701 4.705 4.705 0 014.699-4.701c2.592 0 4.7 2.109 4.7 4.701a4.706 4.706 0 01-4.7 4.701zm0-7.403a2.703 2.703 0 00-2.699 2.701 2.703 2.703 0 002.699 2.701c1.489 0 2.7-1.212 2.7-2.701a2.704 2.704 0 00-2.7-2.701z" fill="#F2E2F1"/></g><g id="Group_9"><path id="Vector_8" d="M91.192 65.955a4.706 4.706 0 01-4.7-4.701 4.706 4.706 0 014.7-4.701 4.706 4.706 0 014.7 4.7 4.707 4.707 0 01-4.7 4.702zm0-7.403a2.704 2.704 0 00-2.7 2.7 2.704 2.704 0 002.7 2.702 2.703 2.703 0 002.7-2.701 2.704 2.704 0 00-2.7-2.701z" fill="#F2E2F1"/></g><g id="Group_10"><path id="Vector_9" d="M101.311 37.197a3.468 3.468 0 01-3.467-3.46 3.468 3.468 0 016.934 0 3.468 3.468 0 01-3.467 3.46zm0-4.92c-.809 0-1.467.655-1.467 1.46 0 .805.658 1.46 1.467 1.46s1.467-.655 1.467-1.46c0-.805-.659-1.46-1.467-1.46z" fill="#F2E2F1"/></g><path id="Vector_10" d="M130.705 81.663a65.66 65.66 0 00-1.192-32.65c2.437-1.178 4.125-3.664 4.125-6.542 0-4.011-3.271-7.274-7.29-7.274-.874 0-1.709.162-2.486.445-9.15-16.356-25.067-28.454-43.956-32.473A3.686 3.686 0 0076.259 0a3.69 3.69 0 00-3.312 2.076 66.622 66.622 0 00-6.839-.354c-31.832 0-58.477 22.556-64.721 52.484a.972.972 0 00-.105.473c0 .009.006.016.006.025A65.823 65.823 0 000 67.655c0 1.884.35 6.726.379 7.022 2.234 22.536 16.519 37.059 18.894 39.442-.4.59-.635 1.301-.635 2.067a3.695 3.695 0 003.7 3.69c.908 0 1.729-.339 2.373-.881a66.157 66.157 0 0012.947 8.165c.153.144.35.229.565.255 11.113 5.543 25.005 6.173 27.885 6.173 13.87 0 26.738-4.305 37.38-11.614.817.685 1.855 1.115 3.003 1.115 2.592 0 4.7-2.109 4.7-4.701 0-.763-.2-1.473-.524-2.111 8.201-7.483 14.524-16.98 18.136-27.714.046.002.089.014.135.014 2.043 0 3.7-1.652 3.7-3.69-.001-1.397-.787-2.597-1.933-3.224zm-4.358-44.466c2.917 0 5.29 2.365 5.29 5.274 0 2.908-2.373 5.273-5.29 5.273s-5.29-2.365-5.29-5.273c0-2.909 2.373-5.274 5.29-5.274zm-19.858 83.892a2.704 2.704 0 01-2.7-2.701 2.704 2.704 0 012.7-2.701c1.489 0 2.7 1.212 2.7 2.701a2.702 2.702 0 01-2.7 2.701zm22.297-39.878c-1.972.081-3.549 1.689-3.549 3.675 0 1.295.672 2.43 1.684 3.089-3.492 10.362-9.585 19.538-17.49 26.777a4.654 4.654 0 00-2.941-1.064 4.706 4.706 0 00-4.7 4.701c0 .731.182 1.416.482 2.034-10.305 7.049-22.752 11.199-36.165 11.199-.308 0-.612-.019-.919-.023 9.258-2.193 18.171-5.956 26.146-11.087a1 1 0 10-1.082-1.682c-9.85 6.337-21.166 10.54-32.776 12.196a63.73 63.73 0 01-15.515-4.126c16.495-2.756 32.366-9.186 46.101-18.709a1.001 1.001 0 00-1.139-1.645c-14.352 9.951-31.079 16.463-48.391 18.851a64.324 64.324 0 01-12.709-8.022c.038-.112.078-.222.105-.339 21.171-1.096 42.165-8.276 59.48-20.445a1 1 0 10-1.151-1.637c-17.009 11.954-37.63 19.001-58.425 20.077a3.687 3.687 0 00-3.497-2.534c-.558 0-1.082.132-1.556.353a64.74 64.74 0 01-5.719-6.525c23.381-1.996 46.132-9.66 65.919-22.26a1.001 1.001 0 00-1.074-1.688c-19.856 12.644-42.738 20.257-66.222 22.061a63.78 63.78 0 01-7.32-13.563c24.84-1.084 48.976-8.741 69.87-22.206a1.001 1.001 0 00-1.084-1.682A138.311 138.311 0 015.625 88.911a63.273 63.273 0 01-3.231-14.007 134.877 134.877 0 0066.988-18.039 1 1 0 10-1-1.732C48.278 66.74 25.393 72.896 2.204 72.898a64 64 0 01-.233-5.242c0-1.156.035-2.303.096-3.444.414.005.829.011 1.243.011 20.462 0 40.626-5.3 58.445-15.379a1 1 0 00-.984-1.74 116.684 116.684 0 01-58.55 15.101 63.58 63.58 0 01.915-6.638c18.916-1.161 37.74-6.43 54.488-15.272a1.001 1.001 0 00-.934-1.77C40.354 47.15 22.014 52.32 3.566 53.533a63.319 63.319 0 012.006-6.975c16.307-1.099 32.487-5.799 46.825-13.616a.999.999 0 10-.957-1.755C37.619 38.722 22.055 43.304 6.341 44.494a63.74 63.74 0 013.426-7.379 130.546 130.546 0 0036.341-11.182 1 1 0 10-.86-1.805 128.522 128.522 0 01-34.183 10.738 64.314 64.314 0 015.224-7.437 90.832 90.832 0 0023.628-7.708 1 1 0 00-.875-1.799 88.814 88.814 0 01-20.664 7.06c11.75-13.059 28.79-21.293 47.727-21.293 2.189 0 4.352.115 6.485.329a3.684 3.684 0 003.667 3.361 3.698 3.698 0 003.406-2.249c18.235 3.932 33.599 15.628 42.452 31.426-1.848 1.321-3.059 3.476-3.059 5.912 0 4.011 3.271 7.273 7.29 7.273.44 0 .869-.046 1.288-.121a63.604 63.604 0 012.606 18.033 63.702 63.702 0 01-1.454 13.558z" fill="#F2E2F1"/><path id="Vector_11" d="M113.396 66.187c0-.679.552-1.23 1.233-1.23s1.233.551 1.233 1.23a1.232 1.232 0 01-2.466 0z" fill="#F2E2F1"/><path id="Vector_12" d="M83.602 40.062a1.232 1.232 0 012.466 0c0 .679-.552 1.23-1.233 1.23a1.23 1.23 0 01-1.233-1.23z" fill="#F2E2F1"/></g></svg>