<svg width="62" height="86" fill="none" xmlns="http://www.w3.org/2000/svg"><g id="Group" fill="#F2E2F1"><path id="Vector" d="M61.295 50.411l-.033-.245v-.001a.984.984 0 00-.071-.526L54.52 0 5.413 11.673 0 85.739l2.929-1.688a.989.989 0 00.69-.246l.464-.419 56.229-32.409a.984.984 0 00.821-.473l.162-.093zm-17.007-4.115L53.421 6.83l5.638 41.95-14.771-2.484zm7.784-42.509L42.43 45.46 21.614 31.01 52.072 3.787zM20.254 29.544L8.138 13.081l41.596-9.887-29.48 26.35zm-1.247 1.679l-16.3 44.936 4.459-61.024 11.841 16.088zM2.777 81.831l17.81-49.099 20.709 14.376L2.901 81.76l-.124.071zm40.368-33.699l14.012 2.356-45.996 26.511 31.984-28.867z"/><path id="Vector_2" d="M25.37 56.061c.726-.867.542-2.216-.41-3.013-.953-.797-2.313-.74-3.039.126-.725.867-.541 2.216.411 3.014.953.797 2.313.74 3.039-.127z"/><path id="Vector_3" d="M30.712 48.018c.335-.4.963-.426 1.402-.058.44.368.525.991.19 1.391s-.963.426-1.402.058c-.439-.368-.525-.991-.19-1.391z"/><path id="Vector_4" d="M37.566 32.816c.335-.4.963-.426 1.402-.058.44.368.525.99.19 1.39-.335.4-.963.427-1.402.059-.44-.368-.525-.991-.19-1.391z"/><path id="Vector_5" d="M40.287 21.133c.335-.4.963-.426 1.402-.058.44.368.525.991.19 1.391s-.963.426-1.402.058c-.44-.368-.525-.99-.19-1.391z"/></g></svg>