<svg width="147" height="73" fill="none" xmlns="http://www.w3.org/2000/svg"><g id="Group" fill="#F2E2F1"><path id="Vector" d="M82.492 38.212a36.097 36.097 0 017.452-8.839 47.205 47.205 0 004.165 3.241A42.66 42.66 0 0087.6 41.02c-1.376-.761-2.657-1.913-5.109-2.807z"/><path id="Vector_2" d="M70.398 20.77c2.517-1.216 2.814-2.26 3.681-6.17.654 2.933 1.447 5.112 3.468 6.228-2.277 1.541-2.717 3.728-3.432 5.907-.978-2.97-1.686-4.472-3.717-5.964z"/><path id="Vector_3" d="M76.262 13.889c1.989-.795 2.223-1.476 2.909-4.028.516 1.914 1.143 3.337 2.74 4.065-1.799 1.006-2.147 2.434-2.713 3.856-.773-1.938-1.332-2.92-2.936-3.893z"/><path id="Vector_4" d="M35.082 44.116a.698.698 0 00-1.302.498c.367.96.784 2.047.692 3.066-.074.834-.636 1.753-1.447 1.845-.643.073-1.344-.368-2-.86-7.859-5.881-13.144-14.83-14.503-24.551-.178-1.282-.263-2.721.461-3.684.334-.445 1.017-.708 1.62-.625.267.036.615.154.756.51a.698.698 0 001.297-.512c-.298-.758-.979-1.261-1.866-1.381-1.108-.148-2.283.32-2.922 1.169-1.03 1.369-.946 3.152-.728 4.717a38.06 38.06 0 001.912 7.675c.559 4.865 1.224 10.03 2.63 15.055 1.42 5.068 3.408 9.232 6.042 12.698-.005.07-.016.14-.017.21-.003.275.02.553.104.812.128.392.411.71.757.905l.007 2.417a1.43 1.43 0 00-.723.734c-.108.262-.14.551-.145.837-.003.274.02.552.104.81.13.399.42.72.774.916l.008 2.886a3.085 3.085 0 01-.591-.165c-1.062-.424-1.792-1.393-2.465-2.317-.178 1.57.319 3.357 1.6 4.379 1.28 1.022 3.378 1.011 4.431-.243.372-.443.594-.993.747-1.55.248-.904.33-1.854.242-2.788-.252.948-.925 1.802-1.775 2.29-.252.146-.52.252-.795.328l-.008-2.791c.51-.274.882-.84.895-1.446a2.162 2.162 0 00-.255-1.023 1.955 1.955 0 00-.65-.717l-.007-2.509c.518-.27.9-.84.912-1.454a2.005 2.005 0 00-.115-.684 30.791 30.791 0 004.114-8.643c.101 0 .204-.006.308-.018 1.574-.18 2.555-1.734 2.678-3.106.122-1.342-.355-2.59-.777-3.69zm-7.24 14.326a1.521 1.521 0 00-.609-.208 1.319 1.319 0 00-.756.185c-2.35-3.231-4.144-7.094-5.45-11.757-.94-3.355-1.54-6.79-2.004-10.159 2.657 5.179 6.464 9.76 11.166 13.278.419.314.86.611 1.326.825a29.923 29.923 0 01-3.673 7.836z"/><path id="Vector_5" d="M41.648 37.963a.696.696 0 10-1.294.519c.54 1.346.828 3.088-.136 3.567-.746.372-1.787-.294-2.34-.724-1.448-1.122-2.647-2.484-3.629-3.67l-.057-.073c.14-.24.224-.515.23-.798a2.162 2.162 0 00-.255-1.023c-.273-.531-.822-.95-1.388-.997a1.296 1.296 0 00-.657.14c-.112-.153-.221-.307-.332-.461.264-.327.432-.728.442-1.147.01-.419-.118-.833-.32-1.202-.34-.623-1.027-1.116-1.735-1.17a1.703 1.703 0 00-.671.091c-.057-.092-.109-.187-.165-.279a1.72 1.72 0 00.514-1.16 2.16 2.16 0 00-.255-1.023c-.273-.532-.822-.95-1.388-.998a1.278 1.278 0 00-.593.114 57.13 57.13 0 01-3.513-8.191c-.427-1.265-.749-2.572-.213-3.555.265-.485.938-.735 1.436-.683.337.031.548.169.627.411a.697.697 0 101.326-.432c-.253-.774-.935-1.286-1.825-1.368-1.139-.103-2.28.474-2.789 1.405-.794 1.459-.387 3.179.116 4.669a58.48 58.48 0 003.929 9.016 3.23 3.23 0 00-.025.327c-.004.274.019.551.103.81.177.543.65.953 1.178 1.077.162.27.313.545.478.813-.129.303-.17.636-.175.964a2.74 2.74 0 00.13.953c.297.856 1.26 1.43 2.163 1.29.01 0 .02-.005.028-.006.228.32.453.64.688.955a3.124 3.124 0 00-.027.351c-.004.274.018.552.103.811.234.716.981 1.198 1.693 1.102.043.052.082.106.125.158.97 1.17 2.284 2.668 3.847 3.88.965.749 1.882 1.128 2.708 1.128a2.46 2.46 0 001.11-.257c1.538-.764 1.841-2.758.808-5.334z"/><path id="Vector_6" d="M146.968 29.985c-.094-.366-.345-.669-.597-.95-2.923-3.256-6.898-5.34-10.783-7.355-.923-.48-1.924-.962-2.944-1.032a.668.668 0 00-.177-.138c-.999-.5-1.999-.998-2.998-1.495a6.868 6.868 0 001.858-.926c1.03-.74 1.754-1.758 2.074-2.87a49.563 49.563 0 005.444-.36c.293-.037.619-.096.785-.343.178-.264.089-.654-.122-.907s-.515-.399-.812-.527c-3.369-1.457-7.06-1.659-10.669-1.816a164.73 164.73 0 00-16.592-1.207c.891-.135 1.778-.335 2.638-.689 1.631-.668 2.845-1.806 3.412-3.162a40.565 40.565 0 004.997-.634c.235-.046.496-.111.618-.319.13-.222.039-.531-.144-.723-.183-.192-.436-.292-.683-.38-2.852-1.005-5.912-.94-8.894-.864-.766.02-1.589.064-2.238.438-3.844-.14-7.436-.214-11.225-.033a15.256 15.256 0 01-.371-.63C98.969 2.034 98.254.757 96.754.48 91.33-.524 85.262.245 79.394.99c-1.632.208-3.32.422-4.941.589L49.318 4.176c-2.304.239-4.685.485-6.97 1.178-3.647 1.104-6.793 3.241-9.835 5.31L.558 32.38a.685.685 0 00-.293.56v.003c-1.438 7.646 3.318 14.19 6.28 17.41 4.365 4.745 9.977 8.01 13.653 8.01.198 0 .39-.01.576-.029l.24-.025.172-.166c4.506-4.338 9.055-8.848 13.454-13.21l.069-.07c3.214-3.187 6.538-6.485 10.322-9.064 3.33-2.269 7.072-4.402 11.867-4.637.038-.002.07-.02.105-.027.933.624 1.946 1.19 3.036 1.684 3.592 1.626 7.513 2.363 11.304 3.076l.325.06c4.318.814 7.886 1.566 11.228 3.216 2.885 1.424 5.464 3.497 7.958 5.501 1.184.952 2.576 2.065 3.968 3.176 1.376 1.098 2.75 2.196 3.92 3.136.043.035.092.055.14.077.823 1.332 2.106 2.376 3.389 3.31a48.727 48.727 0 003.355 2.245c-.379 1.755-.571 3.697-.502 5.471.022.577.654.805 1.196.3.786-.732 1.562-2.821 2.004-4.291a27.46 27.46 0 002.768 1.186c.64.23 1.476.384 1.897-.149.323-.408.208-1.005.008-1.484-.353-.85-.91-1.596-1.477-2.32a62.153 62.153 0 00-1.706-2.073c.139-.825.385-1.651.483-2.478.144-1.208.319-3.18.157-4.644 1.478-4.829 3.063-10.96 4.407-17.069l.027-.127-.019-.129c-.276-1.808-.883-3.517-1.671-5.178a91.056 91.056 0 0011.771 5.283c2.171.79 4.708 1.633 7.374 1.633h.049c2.516-.01 4.828-.868 6.398-2.326a61.454 61.454 0 006.8 2.713c.336.11.718.214 1.028.044.333-.181.444-.627.35-.993zm-22.377-17.712c.05.85.652 1.663 1.398 2.104.867.513 1.886.63 2.87.706 1.021.08 2.044.116 3.067.133a4.191 4.191 0 01-1.411 1.74c-.806.58-1.863.94-3.056 1.06a3783.088 3783.088 0 00-10.96-5.411l-2.138-1.053c3.411.136 6.831.371 10.23.722zm-13.431-7.15c.229.327.549.601.901.778.727.365 1.556.401 2.355.408.482.005.963-.01 1.445-.023-.507.745-1.316 1.385-2.316 1.795-1.35.554-2.875.694-4.351.829-.044.004-.08.024-.121.036a1894.1 1894.1 0 01-7.868-3.908c3.32-.113 6.535-.04 9.955.084zm2.313 23.77c-1.413 6.413-3.092 12.847-4.625 17.728a3.357 3.357 0 00-.16.311c-.533 1.219-1.13 2-1.504 3.426-.286-.298-.571-.597-.864-.89.569-3.071-.543-7.075-2.706-9.742a19.372 19.372 0 00-.667-.775 128.42 128.42 0 011.69-9.46 6.216 6.216 0 013.464-1.332.698.698 0 00.654-.739.703.703 0 00-.739-.654 7.615 7.615 0 00-3.733 1.262 119.501 119.501 0 01-10.96-9.732c.218-.438.47-.856.775-1.247.73-.94 1.715-1.676 2.745-2.409a.698.698 0 00-.81-1.136c-1.117.796-2.19 1.6-3.037 2.69a8.995 8.995 0 00-1.126 1.935.658.658 0 00-.044.1c-.592 1.39-.905 2.892-1.205 4.364-.33 1.625-.65 3.172-1.311 4.545a93.21 93.21 0 01-6.864-7.416.697.697 0 10-1.074.89A94.718 94.718 0 0095.737 34.61c.369.289.74.577 1.112.864 2.01 1.556 4.087 3.165 5.681 5.131 1.703 2.1 2.673 5.11 2.529 7.645-.387-.368-.77-.74-1.167-1.099-1.265-1.14-3.023-2.58-3.988-2.113-1.307.633-1.905 2.147-1.823 3.625l-2.386-1.906c-1.39-1.11-2.783-2.222-3.965-3.173-2.553-2.05-5.193-4.172-8.214-5.664-3.779-1.866-8.109-2.681-11.588-3.336l-.325-.06c-3.71-.698-7.547-1.42-10.985-2.977-3.908-1.77-6.781-4.478-8.092-7.625a.698.698 0 00-1.288.537c.843 2.025 2.272 3.87 4.143 5.443-4.479.576-8.121 2.692-11.132 4.744-3.89 2.651-7.26 5.994-10.52 9.226l-.07.07c-4.336 4.3-8.818 8.743-13.257 13.02-2.828.151-8.283-2.613-12.828-7.553-2.766-3.006-7.192-9.075-5.957-16.061l31.682-21.531c2.956-2.01 6.013-4.086 9.455-5.129 2.157-.654 4.471-.893 6.71-1.124l25.133-2.597c1.639-.17 3.334-.385 4.974-.593 5.761-.732 11.72-1.487 16.932-.522.855.159 1.327 1 1.827 1.892.201.36.41.733.648 1.058a390.822 390.822 0 019.525 13.617c2.364 3.54 4.371 6.774 4.97 10.474zm-11.753 8.813c-1.273-1.205-2.659-2.283-4.017-3.335-.369-.286-.737-.571-1.103-.858a93.41 93.41 0 01-6.237-5.377c.88-1.64 1.262-3.48 1.626-5.265.225-1.104.445-2.175.77-3.174a121.151 121.151 0 0010.545 9.341 129.972 129.972 0 00-1.584 8.668zm30.669-8.553h-.043c-2.44 0-4.839-.799-6.898-1.549a89.526 89.526 0 01-13.406-6.183c-.731-1.269-1.542-2.52-2.38-3.776a393.18 393.18 0 00-7.218-10.43 2427.286 2427.286 0 008.439 4.18l5 2.462c5.073 2.498 10.316 5.078 15.552 7.697-.17.807.058 1.72.539 2.416.665.963 1.702 1.595 2.723 2.17.891.5 1.795.975 2.709 1.43-1.297.996-3.077 1.575-5.017 1.583z"/></g></svg>