<svg width="70" height="30" fill="none" xmlns="http://www.w3.org/2000/svg"><path d="M17.71 4.774c.635.08 1.264.152 1.887.224 1.366.156 2.656.303 3.962.537 9.732 1.745 19.675 5.228 31.291 10.962.093.045.138.127.183.204.017.03.036.062.06.098l.07.102-.445.847-1.332-.644c-5.192-2.526-10.017-4.56-14.75-6.221-6.009-2.107-13.18-4.326-20.82-4.803a.446.446 0 01-.234-.106 1.41 1.41 0 00-.097-.066l-.113-.068.148-1.09.19.024zm51.308 14.683c-.087.064-.207.151-.336.072C58.98 13.59 48.664 9.158 38.02 6.355l-.183-.062.044-.192c.165-.72.21-.914.667-.855.205.027.403.083.595.138l.111.032c8.895 2.485 16.778 5.65 24.1 9.674 1.676.921 3.33 1.948 4.95 2.954.059.036.123.07.19.105.329.174.828.437.69 1.122l-.017.088-.075.046c-.025.015-.05.034-.075.052z" fill="#987C96"/><path d="M13.4 6.996l.156-.042c.06-.016.12-.038.181-.06.153-.055.326-.118.507-.105 5.717.384 10.692 1.372 15.211 3.02 4.357 1.59 8.798 3.588 13.578 6.11l.343.18-.343.18c-.152.078-.275.154-.379.217-.218.134-.375.231-.558.213-.212-.02-.397-.127-.575-.23a2.476 2.476 0 00-.225-.123c-.928-.428-1.852-.861-2.778-1.295-2.076-.974-4.223-1.98-6.362-2.897-4.33-1.855-8.725-3.084-13.062-3.652-.934-.122-1.87-.235-2.807-.347-.643-.078-1.287-.155-1.93-.236a2.498 2.498 0 00-.132-.012c-.186-.014-.453-.034-.63-.234-.098-.11-.17-.274-.185-.52l-.01-.167zm22.15-1.274c-7.183-1.658-14.9-3.044-22.67-1.977-.197.027-.39-.05-.56-.117-.069-.027-.137-.054-.204-.073l-.144-.042.005-.708.144-.039c.108-.03.215-.064.323-.099.245-.079.5-.16.765-.185l.832-.082c1.1-.11 2.236-.225 3.36-.244 5.4-.095 11.032.625 18.263 2.337l.086.02c.094.02.188.04.276.075.246.094.393.222.448.391.084.255-.064.497-.207.732l-.068.11-.313-.045a3.488 3.488 0 01-.336-.054zm10.742 11.991c.188.086.384.176.573.285 3.307 1.904 6.525 3.8 9.532 6.042 1.12.835 2.247 1.658 3.375 2.482 1.088.794 2.176 1.589 3.257 2.393.166.125.24.338.304.527.025.072.05.145.08.21l.128.275-.295.014c-.068.002-.14.015-.213.027-.197.032-.419.068-.598-.04-.615-.37-1.24-.8-1.856-1.278-4.667-3.622-8.599-6.32-12.372-8.488l-.692-.4c-.512-.297-1.025-.595-1.543-.88a1.069 1.069 0 01-.285-.217.578.578 0 01-.144-.284c-.053-.285.132-.552.276-.727l.096-.118.135.065c.079.038.16.075.242.112zm19.841 6.074c-.197.054-.42.115-.603.012-1.017-.577-2.035-1.19-3.02-1.781l-1.006-.604a1.062 1.062 0 01-.252-.2.578.578 0 01-.15-.315c-.03-.232.084-.472.356-.757l.105-.11 1.1.654c1.147.683 2.334 1.388 3.496 2.106.163.101.223.304.276.483.019.063.037.127.06.182l.104.243-.255.037c-.066.01-.138.03-.21.05zm-5.2-3.9c-.112.339-.217.605-.453.703-.15.063-.32.04-.521-.067L58.6 19.8c-.716-.38-1.433-.76-2.147-1.149a1.02 1.02 0 01-.28-.211.555.555 0 01-.146-.315c-.024-.234.105-.471.398-.726l.1-.087 4.463 2.412-.055.163zM14.556 6.183c-.474.052-.964.106-1.45.127-.182.007-.33-.097-.535-.243-.098-.07-.215-.154-.36-.24l-.326-.197.344-.161c1.05-.492 1.972-.53 2.864-.568.185-.008.37-.016.558-.027l.199-.013.013.315c.019.389.041.873-.57.93-.246.022-.491.05-.737.077zm29.366 10.193c.32.151.652.33 1.046.566.22.132.341.279.368.448.039.253-.138.457-.31.654l-.167.196-1.919-1.04.042-.157c.074-.28.174-.587.415-.703.15-.073.32-.061.525.036zM16.714 5.961c-.125-.032-.245-.063-.315-.142a.247.247 0 01-.055-.105c-.038-.154-.013-.31.01-.447.007-.047.015-.094.02-.14l.02-.213.204.035c.042.007.09.01.138.012.166.01.35.022.44.177.079.144.051.31.023.484-.01.068-.023.143-.03.224l-.022.255-.235-.082c-.069-.024-.137-.041-.198-.058zM3.619.094A.957.957 0 014.652.23l2.324 1.948 2.87-.874a.96.96 0 011.005.287c.256.287.331.692.196 1.057L9.973 5.533l1.692 2.551c.214.323.231.735.046 1.076a.975.975 0 01-.913.52L7.81 9.514l-1.826 2.451a.963.963 0 01-.976.378.976.976 0 01-.531-.307 1.03 1.03 0 01-.228-.43L3.476 8.62.656 7.583a1.024 1.024 0 01-.65-.842 1.026 1.026 0 01.445-.974l2.51-1.683.083-3.091c.01-.39.231-.735.575-.899zm3.388 8.752a.975.975 0 01.834-.397l2.923.16-1.655-2.494a1.05 1.05 0 01-.107-.942l1.05-2.822-2.806.855a.963.963 0 01-.9-.186L4.072 1.115l-.08 3.022a1.026 1.026 0 01-.45.828L1.086 6.61l2.757 1.013c.3.11.54.38.623.697l.755 2.922 1.785-2.396z" fill="#987C96"/></svg>