<svg width="119" height="52" fill="none" xmlns="http://www.w3.org/2000/svg"><path d="M88.076 8.163c-1.084.139-2.16.262-3.227.384-2.335.266-4.541.518-6.775.919-16.644 2.984-33.65 8.941-53.516 18.747h-.002c-.157.078-.235.217-.312.35-.029.05-.06.106-.102.167l-.12.175.76 1.448 2.28-1.101c8.88-4.32 17.13-7.8 25.228-10.64 10.275-3.604 22.54-7.398 35.605-8.213.163-.01.284-.098.401-.182.047-.034.101-.073.167-.113l.192-.117-.254-1.864-.325.04zM.327 33.276c.149.11.354.26.574.123 16.593-10.157 34.236-17.737 52.44-22.531l.312-.105-.075-.33c-.283-1.231-.359-1.563-1.14-1.461-.352.045-.69.142-1.018.235l-.192.055c-15.21 4.25-28.693 9.662-41.217 16.546-2.865 1.575-5.694 3.33-8.465 5.051-.1.062-.21.12-.325.18-.563.298-1.416.748-1.18 1.92l.03.15.128.077c.043.027.086.06.128.09z" fill="#987C96"/><path d="M95.449 11.965l-.267-.072c-.102-.027-.206-.065-.31-.103-.261-.094-.558-.201-.867-.18-9.777.657-18.287 2.347-26.015 5.166-7.45 2.718-15.047 6.136-23.223 10.449l-.585.308.587.306c.259.135.47.265.647.374.373.229.642.395.954.363.363-.035.679-.218.984-.395.127-.073.254-.148.384-.208a771.354 771.354 0 004.752-2.216c3.55-1.664 7.222-3.386 10.88-4.954 7.407-3.173 14.923-5.274 22.34-6.245 1.598-.21 3.2-.402 4.8-.594 1.101-.133 2.202-.265 3.302-.403.073-.01.15-.015.226-.021.317-.024.774-.06 1.077-.4.168-.188.29-.468.316-.891l.018-.284zM57.566 9.786C69.85 6.951 83.05 4.58 96.337 6.406c.337.045.667-.086.959-.2.117-.047.233-.094.348-.127l.247-.07-.01-1.211-.246-.067c-.184-.05-.368-.11-.551-.169-.42-.135-.855-.275-1.309-.318-.474-.045-.948-.093-1.422-.14-1.881-.188-3.826-.384-5.747-.417-9.235-.163-18.869 1.07-31.235 3.997l-.147.033c-.16.035-.321.07-.473.129-.42.16-.672.38-.766.67-.143.435.11.85.354 1.25l.116.19.537-.077c.213-.028.395-.052.574-.093zM39.195 30.294c-.323.148-.657.3-.98.487-5.657 3.257-11.16 6.5-16.303 10.334a701.014 701.014 0 01-5.772 4.244 745.906 745.906 0 00-5.57 4.094c-.285.213-.41.577-.521.9a3.532 3.532 0 01-.137.36l-.219.47.505.023c.116.005.24.026.365.047.335.054.715.116 1.021-.068A32.91 32.91 0 0014.76 49c7.982-6.196 14.706-10.808 21.16-14.517l1.184-.684c.876-.509 1.752-1.018 2.638-1.506a1.83 1.83 0 00.488-.37.987.987 0 00.245-.486c.092-.488-.225-.944-.471-1.244l-.164-.2-.232.11c-.134.065-.272.128-.412.192zM5.26 40.682c.338.093.72.197 1.032.021 1.738-.987 3.48-2.034 5.166-3.047l1.72-1.031c.178-.107.321-.22.43-.342a.99.99 0 00.256-.54c.051-.396-.142-.808-.608-1.294l-.18-.188-1.88 1.118a420.513 420.513 0 00-5.98 3.602c-.279.173-.382.519-.472.825-.032.108-.064.217-.103.311l-.178.416.436.064c.114.017.237.052.36.085zm8.893-6.67c.192.578.372 1.034.776 1.202.257.106.548.068.892-.116.773-.413 1.547-.824 2.322-1.236 1.226-.65 2.452-1.301 3.673-1.964.201-.108.36-.23.479-.362a.948.948 0 00.249-.538c.042-.4-.18-.807-.68-1.241l-.17-.15-7.633 4.126.092.279zm79.319-23.437c.81.09 1.647.182 2.48.217.31.013.564-.166.914-.416.168-.12.368-.263.615-.411l.559-.336-.589-.276c-1.796-.84-3.373-.907-4.897-.971a52.64 52.64 0 01-.956-.046l-.34-.021-.022.537c-.032.666-.07 1.495.976 1.59.42.04.84.086 1.26.133zM43.248 28.008c-.547.258-1.116.566-1.79.968-.377.226-.583.477-.628.767-.067.432.235.78.528 1.118l.286.335 3.283-1.78-.072-.267c-.127-.477-.297-1.004-.709-1.203-.256-.124-.55-.104-.898.061zM89.78 10.196c.214-.056.419-.11.54-.244a.423.423 0 00.093-.179c.066-.264.023-.53-.015-.764a3.338 3.338 0 01-.035-.24l-.035-.364-.35.059c-.07.012-.152.016-.235.02-.283.017-.6.039-.752.303-.135.247-.088.53-.04.829.018.116.04.244.051.383l.038.435.401-.14c.118-.04.236-.07.34-.098zM112.178.161a1.636 1.636 0 00-1.769.23l-3.975 3.332-4.91-1.495c-.621-.19-1.279 0-1.717.49a1.778 1.778 0 00-.335 1.809l1.838 4.936-2.894 4.363a1.782 1.782 0 00-.079 1.84c.317.583.916.924 1.562.888l5.111-.28 3.122 4.191c.394.53 1.034.778 1.669.646.358-.074.673-.26.909-.525.182-.204.318-.454.39-.734l1.321-5.11 4.822-1.772a1.75 1.75 0 001.111-1.441 1.753 1.753 0 00-.758-1.667l-4.295-2.877-.141-5.287a1.741 1.741 0 00-.982-1.537zm-5.795 14.968a1.67 1.67 0 00-1.428-.678l-4.997.274 2.83-4.266a1.795 1.795 0 00.182-1.612l-1.797-4.826 4.8 1.461a1.647 1.647 0 001.541-.317l3.887-3.259.138 5.17c.014.573.302 1.103.769 1.416l4.199 2.813-4.716 1.732a1.76 1.76 0 00-1.065 1.193l-1.291 4.997-3.052-4.098z" fill="#987C96"/></svg>