<svg width="85" height="80" fill="none" xmlns="http://www.w3.org/2000/svg"><path id="Vector" d="M20.16 51.243h49.657a7.1 7.1 0 006.914-5.432l7.228-29.655a2.041 2.041 0 00-1.983-2.524H59.293a2.041 2.041 0 000 4.082h20.085l-6.613 27.13a2.99 2.99 0 01-2.948 2.317h-46.39l-7.012-29.448H37.81a2.041 2.041 0 000-4.082H15.443L12.57 1.569A2.041 2.041 0 0010.585 0H2.041a2.041 2.041 0 000 4.082h6.932l10.271 43.134c-3.917.455-6.968 3.792-6.968 7.829 0 4.347 3.537 7.884 7.884 7.884h.738c-3.19 1.35-5.433 4.51-5.433 8.186 0 4.9 3.985 8.885 8.884 8.885 4.9 0 8.885-3.986 8.885-8.885 0-3.675-2.244-6.837-5.434-8.186h39.122c-3.19 1.35-5.433 4.51-5.433 8.186 0 4.9 3.985 8.885 8.884 8.885 4.9 0 8.885-3.986 8.885-8.885 0-3.675-2.244-6.837-5.434-8.186h2.918a2.041 2.041 0 000-4.082H20.16a3.806 3.806 0 01-3.802-3.802 3.806 3.806 0 013.802-3.802zm4.19 24.675a4.808 4.808 0 01-4.803-4.803 4.808 4.808 0 014.802-4.802 4.808 4.808 0 014.803 4.802 4.808 4.808 0 01-4.803 4.803zm46.023 0a4.808 4.808 0 01-4.802-4.803 4.808 4.808 0 014.802-4.802 4.808 4.808 0 014.803 4.802 4.808 4.808 0 01-4.803 4.803zM46.51 32.966V3.234a2.041 2.041 0 014.082 0v29.732l7.55-7.162a2.041 2.041 0 012.81 2.961l-10.996 10.43c-.394.374-.9.56-1.405.56a2.035 2.035 0 01-1.405-.56l-10.995-10.43a2.041 2.041 0 012.809-2.961l7.55 7.162z" fill="#3D3E39"/></svg>