<svg width="80" height="80" fill="none" xmlns="http://www.w3.org/2000/svg"><g id="Union" fill-rule="evenodd" clip-rule="evenodd"><path d="M79.438 46.612L70.063 38.8a1.562 1.562 0 00-1-.362H44.686v-12.5h24.376c.365 0 .719-.129 1-.363l9.375-7.812a1.563 1.563 0 000-2.4L70.063 7.55a1.562 1.562 0 00-1-.363H44.686v-2.5a4.657 4.657 0 00-1.373-3.314A4.657 4.657 0 0040 0a4.693 4.693 0 00-4.688 4.687v18.125H10.939c-.366 0-.72.129-1 .363L.561 30.987a1.562 1.562 0 000 2.4L9.937 41.2c.281.234.635.362 1 .362h24.376V67.5h-8.685a4.681 4.681 0 00-4.448 3.206l-2.056 6.169H15A1.562 1.562 0 1015 80h51.25a1.563 1.563 0 000-3.125h-6.374l-2.056-6.168a4.681 4.681 0 00-4.448-3.207h-8.684V57.187h24.374c.366 0 .72-.128 1-.362l9.376-7.812a1.563 1.563 0 000-2.4zm-34.75-36.3h23.809l7.5 6.25-7.5 6.25h-23.81v-12.5zm-6.25-5.625a1.564 1.564 0 012.666-1.104c.296.295.459.687.459 1.104V67.5h-3.126V4.687zm-26.935 33.75l-7.5-6.25 7.5-6.25h23.81v12.5h-23.81zm41.869 32.188c.674 0 1.27.43 1.483 1.07l1.727 5.18H23.418l1.727-5.181a1.56 1.56 0 011.483-1.069h26.744zm15.125-16.563h-23.81v-12.5h23.81l7.5 6.25-7.5 6.25zM65.937 15a1.563 1.563 0 10.002 3.126A1.563 1.563 0 0065.938 15zm0 31.25a1.563 1.563 0 10.002 3.126 1.563 1.563 0 00-.001-3.126zM9.376 32.187a1.563 1.563 0 113.126.002 1.563 1.563 0 01-3.126-.002zm40-17.187h10.313a1.563 1.563 0 010 3.125H49.374a1.563 1.563 0 010-3.125zm10.313 31.25H49.374a1.563 1.563 0 000 3.125h10.313a1.563 1.563 0 000-3.125zm-42.5-15.625h13.437a1.562 1.562 0 110 3.125H17.187a1.562 1.562 0 110-3.125z" fill="#000"/><path d="M79.438 46.612L70.063 38.8a1.562 1.562 0 00-1-.362H44.686v-12.5h24.376c.365 0 .719-.129 1-.363l9.375-7.812a1.563 1.563 0 000-2.4L70.063 7.55a1.562 1.562 0 00-1-.363H44.686v-2.5a4.657 4.657 0 00-1.373-3.314A4.657 4.657 0 0040 0a4.693 4.693 0 00-4.688 4.687v18.125H10.939c-.366 0-.72.129-1 .363L.561 30.987a1.562 1.562 0 000 2.4L9.937 41.2c.281.234.635.362 1 .362h24.376V67.5h-8.685a4.681 4.681 0 00-4.448 3.206l-2.056 6.169H15A1.562 1.562 0 1015 80h51.25a1.563 1.563 0 000-3.125h-6.374l-2.056-6.168a4.681 4.681 0 00-4.448-3.207h-8.684V57.187h24.374c.366 0 .72-.128 1-.362l9.376-7.812a1.563 1.563 0 000-2.4zm-34.75-36.3h23.809l7.5 6.25-7.5 6.25h-23.81v-12.5zm-6.25-5.625a1.564 1.564 0 012.666-1.104c.296.295.459.687.459 1.104V67.5h-3.126V4.687zm-26.935 33.75l-7.5-6.25 7.5-6.25h23.81v12.5h-23.81zm41.869 32.188c.674 0 1.27.43 1.483 1.07l1.727 5.18H23.418l1.727-5.181a1.56 1.56 0 011.483-1.069h26.744zm15.125-16.563h-23.81v-12.5h23.81l7.5 6.25-7.5 6.25zM65.937 15a1.563 1.563 0 10.002 3.126A1.563 1.563 0 0065.938 15zm0 31.25a1.563 1.563 0 10.002 3.126 1.563 1.563 0 00-.001-3.126zM9.376 32.187a1.563 1.563 0 113.126.002 1.563 1.563 0 01-3.126-.002zm40-17.187h10.313a1.563 1.563 0 010 3.125H49.374a1.563 1.563 0 010-3.125zm10.313 31.25H49.374a1.563 1.563 0 000 3.125h10.313a1.563 1.563 0 000-3.125zm-42.5-15.625h13.437a1.562 1.562 0 110 3.125H17.187a1.562 1.562 0 110-3.125z" fill="#3D3E39"/></g></svg>