<svg width="69" height="80" fill="none" xmlns="http://www.w3.org/2000/svg"><g id="Group 6"><g id="Union" fill-rule="evenodd" clip-rule="evenodd"><path d="M54.815 0H1.482C.663 0 0 .663 0 1.482v74.074a1.481 1.481 0 002.244 1.27l6.553-3.932 5.129 3.847a1.48 1.48 0 001.65.085l6.554-3.932 5.13 3.847a1.48 1.48 0 001.65.085l7.408-4.444a1.481 1.481 0 10-1.525-2.541l-6.553 3.932-5.129-3.847a1.48 1.48 0 00-1.651-.085l-6.553 3.932-5.13-3.847a1.48 1.48 0 00-1.65-.085l-5.164 3.098V2.963h50.37v45.926a1.481 1.481 0 102.963 0V1.48A1.48 1.48 0 0054.815 0zM41.482 66.666c0-7.352 5.982-13.333 13.334-13.333 7.352 0 13.333 5.982 13.333 13.334C68.149 74.019 62.168 80 54.816 80s-13.334-5.981-13.334-13.334zm2.963 0c0 5.719 4.652 10.37 10.37 10.37 5.719 0 10.371-4.651 10.371-10.37 0-5.718-4.652-10.37-10.37-10.37-5.719 0-10.37 4.652-10.37 10.37zm15.158-5.392a1.482 1.482 0 012.277 1.896l-7.408 8.89a1.482 1.482 0 01-2.185.099l-4.445-4.445a1.48 1.48 0 112.095-2.095l3.298 3.297 6.368-7.642zM8.89 13.334h7.407a1.482 1.482 0 010 2.962H8.89a1.482 1.482 0 110-2.963zm35.553 7.407h-7.407a1.481 1.481 0 000 2.963h7.407a1.482 1.482 0 100-2.963zm-7.407 7.407h7.407a1.482 1.482 0 010 2.963h-7.407a1.481 1.481 0 110-2.963zm7.407 7.408h-7.407a1.482 1.482 0 000 2.963h7.407a1.482 1.482 0 100-2.963zm-7.407 7.407h7.407a1.482 1.482 0 010 2.963h-7.407a1.481 1.481 0 110-2.963zm7.407 7.407h-7.407a1.482 1.482 0 000 2.963h7.407a1.482 1.482 0 100-2.963zM8.89 20.74h20.74a1.482 1.482 0 010 2.964H8.89a1.481 1.481 0 110-2.963zm20.74 7.408H8.89a1.482 1.482 0 000 2.963h20.74a1.482 1.482 0 100-2.963zM8.89 35.556h20.74a1.482 1.482 0 010 2.963H8.89a1.481 1.481 0 110-2.963zm20.74 7.407H8.89a1.482 1.482 0 000 2.963h20.74a1.482 1.482 0 100-2.963zM8.89 50.37h20.74a1.482 1.482 0 010 2.963H8.89a1.481 1.481 0 110-2.963z" fill="#000"/><path d="M54.815 0H1.482C.663 0 0 .663 0 1.482v74.074a1.481 1.481 0 002.244 1.27l6.553-3.932 5.129 3.847a1.48 1.48 0 001.65.085l6.554-3.932 5.13 3.847a1.48 1.48 0 001.65.085l7.408-4.444a1.481 1.481 0 10-1.525-2.541l-6.553 3.932-5.129-3.847a1.48 1.48 0 00-1.651-.085l-6.553 3.932-5.13-3.847a1.48 1.48 0 00-1.65-.085l-5.164 3.098V2.963h50.37v45.926a1.481 1.481 0 102.963 0V1.48A1.48 1.48 0 0054.815 0zM41.482 66.666c0-7.352 5.982-13.333 13.334-13.333 7.352 0 13.333 5.982 13.333 13.334C68.149 74.019 62.168 80 54.816 80s-13.334-5.981-13.334-13.334zm2.963 0c0 5.719 4.652 10.37 10.37 10.37 5.719 0 10.371-4.651 10.371-10.37 0-5.718-4.652-10.37-10.37-10.37-5.719 0-10.37 4.652-10.37 10.37zm15.158-5.392a1.482 1.482 0 012.277 1.896l-7.408 8.89a1.482 1.482 0 01-2.185.099l-4.445-4.445a1.48 1.48 0 112.095-2.095l3.298 3.297 6.368-7.642zM8.89 13.334h7.407a1.482 1.482 0 010 2.962H8.89a1.482 1.482 0 110-2.963zm35.553 7.407h-7.407a1.481 1.481 0 000 2.963h7.407a1.482 1.482 0 100-2.963zm-7.407 7.407h7.407a1.482 1.482 0 010 2.963h-7.407a1.481 1.481 0 110-2.963zm7.407 7.408h-7.407a1.482 1.482 0 000 2.963h7.407a1.482 1.482 0 100-2.963zm-7.407 7.407h7.407a1.482 1.482 0 010 2.963h-7.407a1.481 1.481 0 110-2.963zm7.407 7.407h-7.407a1.482 1.482 0 000 2.963h7.407a1.482 1.482 0 100-2.963zM8.89 20.74h20.74a1.482 1.482 0 010 2.964H8.89a1.481 1.481 0 110-2.963zm20.74 7.408H8.89a1.482 1.482 0 000 2.963h20.74a1.482 1.482 0 100-2.963zM8.89 35.556h20.74a1.482 1.482 0 010 2.963H8.89a1.481 1.481 0 110-2.963zm20.74 7.407H8.89a1.482 1.482 0 000 2.963h20.74a1.482 1.482 0 100-2.963zM8.89 50.37h20.74a1.482 1.482 0 010 2.963H8.89a1.481 1.481 0 110-2.963z" fill="#3D3E39"/></g></g></svg>