<svg width="80" height="80" fill="none" xmlns="http://www.w3.org/2000/svg"><path id="Vector" d="M18.375 60.375H8.75c-.75 0-1.25.5-1.25 1.25v9.625c0 .75.5 1.25 1.25 1.25h9.625c.75 0 1.25-.5 1.25-1.25v-9.625c0-.625-.625-1.25-1.25-1.25zM17.125 70H10v-7.125h7.125V70zm1.25-29.625H8.75c-.75 0-1.25.5-1.25 1.25v9.625c0 .75.5 1.25 1.25 1.25h9.625c.75 0 1.25-.5 1.25-1.25v-9.625c0-.75-.625-1.25-1.25-1.25zM17.125 50H10v-7.125h7.125V50zm1.25-29.75H8.75c-.75 0-1.25.5-1.25 1.25v9.625c0 .75.5 1.25 1.25 1.25h9.625c.75 0 1.25-.5 1.25-1.25V21.5c0-.625-.625-1.25-1.25-1.25zm-1.25 9.625H10V22.75h7.125v7.125zm7.5-6.875c0 .75.5 1.25 1.25 1.25h13.75c.75 0 1.25-.5 1.25-1.25s-.5-1.25-1.25-1.25h-13.75c-.75 0-1.25.625-1.25 1.25zm0 6.625c0 .75.5 1.25 1.25 1.25h26.5c.75 0 1.25-.5 1.25-1.25s-.5-1.25-1.25-1.25h-26.5c-.75 0-1.25.5-1.25 1.25zm15 12.25h-13.75c-.75 0-1.25.5-1.25 1.25s.5 1.25 1.25 1.25h13.75c.75 0 1.25-.5 1.25-1.25s-.625-1.25-1.25-1.25zm-13.75 22.5h13.75c.75 0 1.25-.5 1.25-1.25s-.5-1.25-1.25-1.25h-13.75c-.75 0-1.25.5-1.25 1.25s.5 1.25 1.25 1.25zM8.75 12.625h20.375c.75 0 1.25-.5 1.25-1.25s-.5-1.25-1.25-1.25H8.75c-.75 0-1.25.5-1.25 1.25s.5 1.25 1.25 1.25zM78.875 28l-5-4c-1.25-1-3-.75-4 .5l-8.75 11.125v-19.5c0-.375-.125-.625-.375-.875L45.875.375A1.35 1.35 0 0045 0H6.25C2.75 0 0 2.75 0 6.25v67.5C0 77.25 2.75 80 6.25 80h48.625c3.5 0 6.25-2.75 6.25-6.25v-18.5L79.375 32c.5-.625.625-1.375.625-2.125S79.5 28.5 78.875 28zM46.25 4.25l10.625 10.625H47.5c-.75 0-1.25-.5-1.25-1.25V4.25zm12.375 69.5c0 2.125-1.625 3.75-3.75 3.75H6.25c-2.125 0-3.75-1.625-3.75-3.75V6.25c0-2.125 1.625-3.75 3.75-3.75h37.5v11.125c0 2.125 1.625 3.75 3.75 3.75h11.125V38.75L51 48.375H25.875c-.75 0-1.25.5-1.25 1.25s.5 1.25 1.25 1.25h23.25l-4.75 6c-.125.125-.125.25-.25.375L41 68.375H25.875c-.75 0-1.25.5-1.25 1.25s.5 1.25 1.25 1.25h26.5c.75 0 1.25-.5 1.25-1.25s-.5-1.25-1.25-1.25H46.75l6.625-3.75c.125-.125.25-.125.25-.25l4.75-6 .25 15.375zM46 59.875l4.625 3.625L44 67.25l2-7.375zm6.625 2L47 57.5l17.375-22c.125.125 6 4.75 5.625 4.375l-17.375 22zm19-24L66 33.5l1.375-1.75L73 36.125l-1.375 1.75zm5.75-7.375L74.5 34.25l-5.625-4.375 2.875-3.75a.38.38 0 01.5 0l5 4c.25-.125.25 0 .25.125s0 .125-.125.25z" fill="#3D3E39"/></svg>