<svg width="80" height="80" fill="none" xmlns="http://www.w3.org/2000/svg"><g id="Union" fill-rule="evenodd" clip-rule="evenodd"><path d="M40 0c10.684 0 20.73 4.16 28.284 11.716C75.84 19.27 80 29.316 80 40c0 10.684-4.16 20.73-11.716 28.284C60.73 75.84 50.684 80 40 80c-10.684 0-20.73-4.16-28.284-11.716C4.16 60.73 0 50.684 0 40c0-10.684 4.16-20.73 11.716-28.284C19.27 4.16 29.316 0 40 0zm0 77.656c10.058 0 19.515-3.917 26.627-11.029 7.112-7.112 11.03-16.569 11.03-26.627s-3.918-19.515-11.03-26.627C59.515 6.261 50.058 2.343 40 2.343s-19.515 3.918-26.627 11.03C6.261 20.485 2.343 29.942 2.343 40s3.918 19.515 11.03 26.627c7.112 7.112 16.569 11.03 26.627 11.03zm-1.172-63.959a1.172 1.172 0 012.344 0v5.01a1.172 1.172 0 11-2.344 0v-5.01zM40 60.121c-.647 0-1.172.525-1.172 1.172v5.01a1.172 1.172 0 002.344 0v-5.01c0-.647-.525-1.172-1.172-1.172zm21.293-21.293h5.01a1.172 1.172 0 010 2.344h-5.01a1.172 1.172 0 010-2.344zm-42.586 0h-5.01a1.172 1.172 0 000 2.344h5.01a1.172 1.172 0 000-2.344zm-.9-12.994l2.17 1.252a1.172 1.172 0 11-1.172 2.03l-2.17-1.253a1.172 1.172 0 111.172-2.03zm45.558 26.303l-2.17-1.253a1.172 1.172 0 10-1.171 2.03l2.169 1.252a1.172 1.172 0 101.172-2.03zM52.136 16.635a1.172 1.172 0 112.03 1.172l-1.253 2.17a1.172 1.172 0 11-2.03-1.172l1.253-2.17zm-23.45 42.96a1.172 1.172 0 00-1.6.428l-1.253 2.17a1.172 1.172 0 102.03 1.172l1.252-2.17a1.172 1.172 0 00-.429-1.6zm33.507-33.761a1.172 1.172 0 011.172 2.03l-2.17 1.252a1.172 1.172 0 11-1.172-2.03l2.17-1.252zM20.405 51.313a1.172 1.172 0 00-1.6-.429l-2.17 1.253a1.172 1.172 0 001.172 2.03l2.17-1.253c.56-.324.752-1.04.428-1.601zm7.458-34.678l1.252 2.17a1.172 1.172 0 01-2.03 1.171l-1.252-2.169a1.172 1.172 0 112.03-1.172zm26.303 45.558l-1.253-2.17a1.172 1.172 0 10-2.03 1.172l1.253 2.17a1.171 1.171 0 102.03-1.172zm1.94-25.856a1.171 1.171 0 11.356 2.316l-12.84 1.975a3.682 3.682 0 01-3.621 3.049A3.681 3.681 0 0136.324 40c0-.587.139-1.142.385-1.635L24.142 25.798a1.172 1.172 0 111.657-1.657l12.567 12.567a3.654 3.654 0 011.635-.385 3.68 3.68 0 013.265 1.989l12.84-1.975zM38.666 40a1.335 1.335 0 002.666 0 1.334 1.334 0 00-2.666 0zm22.387-24.728a32.374 32.374 0 00-22.273-7.73 32.361 32.361 0 00-21.752 9.488 32.361 32.361 0 00-9.486 21.75c-.302 8.166 2.443 16.076 7.73 22.273a1.169 1.169 0 001.652.13 1.17 1.17 0 00.131-1.651 30.04 30.04 0 01-7.17-20.666 30.025 30.025 0 018.802-20.18 30.024 30.024 0 0120.18-8.803 30.041 30.041 0 0120.666 7.171 1.172 1.172 0 001.52-1.783zm2.022 3.543a1.172 1.172 0 011.652.131c5.287 6.197 8.032 14.107 7.73 22.273A32.36 32.36 0 0162.97 62.97a32.36 32.36 0 01-22.968 9.51 32.363 32.363 0 01-21.057-7.752 1.172 1.172 0 011.521-1.783 30.04 30.04 0 0020.666 7.17 30.024 30.024 0 0020.18-8.802 30.025 30.025 0 008.803-20.18 30.042 30.042 0 00-7.171-20.666 1.172 1.172 0 01.131-1.652z" fill="#000"/><path d="M40 0c10.684 0 20.73 4.16 28.284 11.716C75.84 19.27 80 29.316 80 40c0 10.684-4.16 20.73-11.716 28.284C60.73 75.84 50.684 80 40 80c-10.684 0-20.73-4.16-28.284-11.716C4.16 60.73 0 50.684 0 40c0-10.684 4.16-20.73 11.716-28.284C19.27 4.16 29.316 0 40 0zm0 77.656c10.058 0 19.515-3.917 26.627-11.029 7.112-7.112 11.03-16.569 11.03-26.627s-3.918-19.515-11.03-26.627C59.515 6.261 50.058 2.343 40 2.343s-19.515 3.918-26.627 11.03C6.261 20.485 2.343 29.942 2.343 40s3.918 19.515 11.03 26.627c7.112 7.112 16.569 11.03 26.627 11.03zm-1.172-63.959a1.172 1.172 0 012.344 0v5.01a1.172 1.172 0 11-2.344 0v-5.01zM40 60.121c-.647 0-1.172.525-1.172 1.172v5.01a1.172 1.172 0 002.344 0v-5.01c0-.647-.525-1.172-1.172-1.172zm21.293-21.293h5.01a1.172 1.172 0 010 2.344h-5.01a1.172 1.172 0 010-2.344zm-42.586 0h-5.01a1.172 1.172 0 000 2.344h5.01a1.172 1.172 0 000-2.344zm-.9-12.994l2.17 1.252a1.172 1.172 0 11-1.172 2.03l-2.17-1.253a1.172 1.172 0 111.172-2.03zm45.558 26.303l-2.17-1.253a1.172 1.172 0 10-1.171 2.03l2.169 1.252a1.172 1.172 0 101.172-2.03zM52.136 16.635a1.172 1.172 0 112.03 1.172l-1.253 2.17a1.172 1.172 0 11-2.03-1.172l1.253-2.17zm-23.45 42.96a1.172 1.172 0 00-1.6.428l-1.253 2.17a1.172 1.172 0 102.03 1.172l1.252-2.17a1.172 1.172 0 00-.429-1.6zm33.507-33.761a1.172 1.172 0 011.172 2.03l-2.17 1.252a1.172 1.172 0 11-1.172-2.03l2.17-1.252zM20.405 51.313a1.172 1.172 0 00-1.6-.429l-2.17 1.253a1.172 1.172 0 001.172 2.03l2.17-1.253c.56-.324.752-1.04.428-1.601zm7.458-34.678l1.252 2.17a1.172 1.172 0 01-2.03 1.171l-1.252-2.169a1.172 1.172 0 112.03-1.172zm26.303 45.558l-1.253-2.17a1.172 1.172 0 10-2.03 1.172l1.253 2.17a1.171 1.171 0 102.03-1.172zm1.94-25.856a1.171 1.171 0 11.356 2.316l-12.84 1.975a3.682 3.682 0 01-3.621 3.049A3.681 3.681 0 0136.324 40c0-.587.139-1.142.385-1.635L24.142 25.798a1.172 1.172 0 111.657-1.657l12.567 12.567a3.654 3.654 0 011.635-.385 3.68 3.68 0 013.265 1.989l12.84-1.975zM38.666 40a1.335 1.335 0 002.666 0 1.334 1.334 0 00-2.666 0zm22.387-24.728a32.374 32.374 0 00-22.273-7.73 32.361 32.361 0 00-21.752 9.488 32.361 32.361 0 00-9.486 21.75c-.302 8.166 2.443 16.076 7.73 22.273a1.169 1.169 0 001.652.13 1.17 1.17 0 00.131-1.651 30.04 30.04 0 01-7.17-20.666 30.025 30.025 0 018.802-20.18 30.024 30.024 0 0120.18-8.803 30.041 30.041 0 0120.666 7.171 1.172 1.172 0 001.52-1.783zm2.022 3.543a1.172 1.172 0 011.652.131c5.287 6.197 8.032 14.107 7.73 22.273A32.36 32.36 0 0162.97 62.97a32.36 32.36 0 01-22.968 9.51 32.363 32.363 0 01-21.057-7.752 1.172 1.172 0 011.521-1.783 30.04 30.04 0 0020.666 7.17 30.024 30.024 0 0020.18-8.802 30.025 30.025 0 008.803-20.18 30.042 30.042 0 00-7.171-20.666 1.172 1.172 0 01.131-1.652z" fill="#3D3E39"/></g></svg>