<svg width="122" height="80" fill="none" xmlns="http://www.w3.org/2000/svg"><g id="Vector"><path d="M111.509 0H9.703C4.353 0 0 4.35 0 9.698v60.604C0 75.65 4.353 80 9.703 80h101.806c5.35 0 9.703-4.35 9.703-9.698V9.698c0-5.347-4.353-9.698-9.703-9.698zM9.703 4.848h101.806c.238 0 .471.024.7.057l-51.603 38.14L9.003 4.906c.23-.034.462-.057.7-.057zM4.848 70.302V9.698c0-.57.105-1.115.286-1.623l36.434 26.929-36.55 36.55c-.107-.4-.17-.819-.17-1.252zm106.661 4.85H9.703c-.435 0-.854-.063-1.256-.17L45.51 37.917 59.165 48.01a2.422 2.422 0 002.882 0L75.7 37.918l37.063 37.063a4.82 4.82 0 01-1.255.17zm4.855-4.85c0 .433-.063.852-.17 1.251l-36.55-36.55 36.434-26.928c.181.508.286 1.053.286 1.623v60.604z" fill="#000"/><path d="M111.509 0H9.703C4.353 0 0 4.35 0 9.698v60.604C0 75.65 4.353 80 9.703 80h101.806c5.35 0 9.703-4.35 9.703-9.698V9.698c0-5.347-4.353-9.698-9.703-9.698zM9.703 4.848h101.806c.238 0 .471.024.7.057l-51.603 38.14L9.003 4.906c.23-.034.462-.057.7-.057zM4.848 70.302V9.698c0-.57.105-1.115.286-1.623l36.434 26.929-36.55 36.55c-.107-.4-.17-.819-.17-1.252zm106.661 4.85H9.703c-.435 0-.854-.063-1.256-.17L45.51 37.917 59.165 48.01a2.422 2.422 0 002.882 0L75.7 37.918l37.063 37.063a4.82 4.82 0 01-1.255.17zm4.855-4.85c0 .433-.063.852-.17 1.251l-36.55-36.55 36.434-26.928c.181.508.286 1.053.286 1.623v60.604z" fill="#3D3E39"/></g></svg>