<svg width="336" height="316" fill="none" xmlns="http://www.w3.org/2000/svg"><path d="M269.724 268.272C241.256 297.112 201.723 315 158 315 70.514 315-.259 243.443 1.017 155.664 2.23 72.173 69.899 3.473 153.365 1.067c45.56-1.314 86.89 16.806 116.359 46.66-21.987-15.535-48.8-24.691-77.768-24.691-34.06 0-65.159 12.627-88.901 33.446-13.806 12.106-18.27 31.07-13.701 48.855.498 1.94.497 3.894-.428 6.227-1.362 3.43-6.036 7.682-6.036 7.682s-.426 7.132 6.509 14.814c6.934 7.682 15.164 29.081 14.067 31.55-1.097 2.47-4.39 4.39-13.443 4.39 0 0-3.567 5.486-.823 8.779 2.743 3.291 2.468 4.937.273 7.132 0 0 5.733 3.842 3.69 7.408l-2.043 3.567s12.62 14.54 9.328 21.948c-3.293 7.407 32.927 97.784 169.276 49.438zm0 0a135.708 135.708 0 01-10.58 6.737l10.58-6.737z" stroke="#662549" stroke-width="1.727" stroke-miterlimit="10" stroke-linecap="round" stroke-linejoin="round"/><path d="M72.623 117.802s-.57 6.244-4.275 7.479c-3.704 1.234-20.114 5.761-20.114 5.761s14.352 5.35 19.29 5.35c4.94 0 4.083 5.845 4.083 5.845m-2.74 44.098c15.805 5.201 18.867 1.983 19.768.736l.837-1.158" stroke="#662549" stroke-width="1.727" stroke-miterlimit="10" stroke-linecap="round" stroke-linejoin="round"/><path d="M72.053 130.917c0 2.972-1.52 5.379-3.394 5.379s-3.393-2.409-3.393-5.379c0-2.97 1.52-5.379 3.393-5.379 1.874 0 3.394 2.408 3.394 5.379zm3.77 31.126s-3.909 9.602 6.516 9.328m-40.12-57.977c1.46-.701 3.27-2.488 11.79-5.111 15.388-4.739 20.72 1.893 20.72 1.893M89.2 178.778l-1.783 3.292s-1.51-1.097-4.116 0c-2.606 1.098-4.13 2.248-4.13 2.248m-6.546 7.218s7.11 5.899 12.048 5.625m-19.407-76.288s-6.175.824-11.525 2.667c-5.35 1.842-13.58 4.105-13.58 4.105M63 178.778s-3.904 5.21-2.57 10.424" stroke="#662549" stroke-width="1.727" stroke-miterlimit="10" stroke-linecap="round" stroke-linejoin="round"/><path d="M216.978 67.256c25.268 17.77 40.29 48.441 36.533 81.296-5.27 46.076-45.548 79.621-91.251 77.158 34.023 23.92 81.309 20.692 111.725-9.724 34.055-34.055 34.055-89.267 0-123.322-15.845-15.845-36.266-24.305-57.007-25.408z" fill="#662549" stroke="#662549" stroke-width="1.5" stroke-miterlimit="10" stroke-linecap="round" stroke-linejoin="round"/><path d="M273.984 215.984c34.055-34.055 34.055-89.268 0-123.323-34.055-34.054-89.268-34.054-123.323 0-34.054 34.055-34.054 89.268 0 123.323 34.055 34.055 89.268 34.055 123.323 0z" stroke="#662549" stroke-width="1.5" stroke-miterlimit="10"/><path d="M175.858 117.252c-2.755-2.935-6.323-5.154-10.207-6.229-7.156-1.985-15.011-.096-20.572 4.772-1.367 1.196.606 3.091 1.975 1.974 4.896-3.987 11.722-5.463 17.799-3.702 3.27.947 6.19 2.844 8.505 5.33 1.161 1.247 2.133 2.639 2.959 4.129.556 1.008.99 2.074 1.454 3.121-.097 2.894.076 5.744-.36 8.634-.448 2.967-1.262 5.882-2.331 8.684-2.462 6.443-6.354 12.3-10.343 17.883-1.478 2.064-3.265 4.197-3.538 6.826-.257 2.478 1.158 4.76 3.552 5.548 5.901 1.94 9.693-4.766 15.451-3.902 2.541.381 4.934 1.473 7.379 2.211 2.013.607 5.63 1.636 7.17-.332.371-.473.304-.992-.183-1.349-.838-.617-1.643-.611-2.647-.768a26 26 0 01-3.269-.75c-2.043-.597-4.02-1.416-6.086-1.942-2.032-.515-4.175-.752-6.239-.265-2.763.652-4.787 2.716-7.401 3.652-1.09.389-2.828.644-3.759-.235-.903-.849-.371-2.2.087-3.119 1.268-2.547 3.307-4.783 4.911-7.12 3.48-5.078 6.565-10.437 8.613-16.262 1.708-4.854 3.179-11.02 2.16-16.314.004-.036.02-.069.024-.11.135-3.79-2.63-7.729-5.104-10.365zm53.329-4.671a18.088 18.088 0 00-3.823-2.518c-2.731-1.333-5.758-2.079-8.803-2.046-3.024.033-6.021.854-8.686 2.268a19.977 19.977 0 00-3.707 2.561c-.992.862-2.286 2.136-2.592 3.452-.171.742.601 1.314 1.268.974 1.112-.571 2.039-1.722 3.007-2.519.982-.807 2.079-1.483 3.216-2.049a16.588 16.588 0 017.496-1.726c2.515.024 5.021.652 7.26 1.799a19.033 19.033 0 013.145 2.019c.548.434 1.132.823 1.658 1.284.53.464.933.99 1.649 1.147.66.147 1.353-.322 1.34-1.035-.02-1.263-1.497-2.814-2.428-3.611zm-31.268 74.205c-1.633-.177-3.157.21-4.75.528-1.608.32-3.232.55-4.872.577a15.365 15.365 0 01-4.834-.685c-1.63-.509-3.197-1.163-4.904-1.367-5.302-.628-9.789 3.619-15.071 2.616-1.253-.238-2.092 1.478-.876 2.152 5.206 2.875 10.47-2.543 15.757-1.832 1.789.241 3.438 1.074 5.172 1.524 1.61.416 3.297.579 4.957.536 3.177-.079 7.216-.519 9.857-2.406.731-.524.456-1.545-.436-1.643zm-14.521 11.33c-.311.157-.54.307-.749.456-.302.212-.388.302-.75.522-.245.146-.5.275-.758.395-.059.026-.078.037-.094.045-.01.002-.031.006-.09.024-.14.043-.279.088-.419.127-.143-.004-.286-.057-.435-.027-.207.045-.411.118-.621.165a5.496 5.496 0 01-.279.055 4.762 4.762 0 01-.151.021c-.081.004-.21.014-.21.014a6.808 6.808 0 01-.856-.012l-.165-.019s-.163-.024-.203-.032a6.87 6.87 0 01-.844-.22 11.557 11.557 0 00-.147-.053 6.466 6.466 0 01-.974-.514c-.102-.065-.199-.138-.301-.204-.008-.004-.004 0-.011-.006l-.01-.01c-.144-.132-.295-.251-.436-.387a9.457 9.457 0 01-.823-.876c-.016-.021-.03-.043-.047-.067-.067-.1-.136-.202-.2-.306a6.208 6.208 0 00-.503-.687c-.662-.817-2.31-.171-2.176.901.375 2.963 3.464 5.294 6.286 5.699a8.485 8.485 0 002.403-.006c.33-.045.66-.102.978-.196.334-.097.637-.23.892-.472.031-.035.027-.035.043-.051.061-.029.12-.059.179-.09 1.219-.64 2.594-1.685 2.928-3.083.194-.846-.699-1.489-1.457-1.106zm47.909-68.882a27.592 27.592 0 00-4.281-2.704 30.115 30.115 0 00-9.778-3.071 30.373 30.373 0 00-9.371.243c-2.821.509-6.651 1.434-8.667 3.625-.849.923.009 2.131 1.135 1.978 1.38-.185 2.708-.853 4.031-1.271 1.068-.338 2.168-.583 3.264-.815-.104.487-.157.988-.204 1.479-.091.988-.044 1.952.112 2.932.324 2.024 1.28 4.031 2.759 5.469 1.437 1.396 3.379 2.234 5.388 2.254.487.006.984-.047 1.461-.137.536-.099 1.098-.495 1.41-.692.654-.414 1.667-1.015 1.818-2.018.114-.745-.326-1.544-1.178-1.524-.444.012-.783.118-1.192.296-.055.022-.534.167-.666.214-.096-.011-.192-.041-.288-.027-.257.012-.511.067-.766.098.192-.025-.049.008-.11.012-.2.012-.395.016-.595.012a4.624 4.624 0 01-.332-.022c-.027-.01-.243-.047-.271-.055-.163-.037-.318-.086-.479-.128-.293-.078-.016.012-.21-.076-.705-.322-1.123-.646-1.663-1.206-.91-.943-1.454-2.237-1.697-3.592-.222-1.237-.096-2.497-.204-3.733 2.024-.194 4.07-.235 6.068.048a26.562 26.562 0 018.506 2.723 30.515 30.515 0 013.898 2.443c1.086.793 2.294 2.286 3.659 2.461 1.039.135 1.757-.558 1.608-1.607-.206-1.535-2.013-2.723-3.165-3.609z" fill="#662549"/><path d="M167.438 125.006c-1.229-.373-2.5-.593-3.774-.754-2.525-.316-5.047-.247-7.562.145-2.5.389-4.933 1.167-7.221 2.245a22.297 22.297 0 00-3.11 1.761c-1.078.739-2.335 1.573-3.062 2.671-.848 1.284.793 2.59 1.995 1.995.982-.489 1.852-1.359 2.785-1.954.452-.29.944-.516 1.412-.777.07.383.169.773.314 1.158.626 1.677 1.378 3.403 2.541 4.778 1.088 1.288 2.706 2.115 4.414 2.017 1.685-.095 4.156-1.508 3.142-3.517-.184-.362-.663-.662-1.076-.627-.485.041-.797.185-1.207.444.249-.159-.038-.002-.089.024-.104.055-.21.117-.31.184-.033.02-.033.024-.049.036-.006-.002-.002-.006-.024 0-.118.033-.241.062-.361.096a.4.4 0 00-.075.027c-.006-.002-.004-.004-.027-.002-.13.008-.259.002-.385.006-.283.006.041.024-.12-.01-.129-.027-.253-.062-.379-.094a.527.527 0 00-.082-.016c-.004-.005-.002-.007-.028-.021a6.019 6.019 0 01-.336-.185c-.381-.239-.785-.711-1.058-1.123-.379-.575-.689-1.19-.984-1.807-.236-.493-.493-1.015-.638-1.437-.173-.503-.238-.833-.249-1.3 1.604-.609 3.265-1.088 4.956-1.345a22.864 22.864 0 016.447-.053c1.131.153 2.242.416 3.342.713 1.129.306 2.168.799 3.354.746 1.194-.053 1.667-1.377.931-2.247-.858-1.013-2.19-1.4-3.427-1.777z" fill="#662549"/><path d="M213.68 150.485h0c-2.799.659-5.162 2.84-5.735 5.539l-.06.283-.162.241c-.661.986-.811 2.175-.568 3.531.245 1.371.878 2.803 1.633 4.095l4.892-13.689zm0 0c3.09-.728 6.356.358 8.705 2.631l.003.003c1.201 1.157 2.176 2.612 2.562 4.089.372 1.423.107 2.92-.655 4.333h0m-10.615-11.056l10.615 11.056m0 0c-.766 1.42-1.961 2.799-3.24 3.941m3.24-3.941l-3.24 3.941m0 0c-1.333 1.186-2.808 2.096-4.389 2.467l4.389-2.467zm-8.662 2.188c-1.501-.627-2.665-1.885-3.605-3.495l7.878 3.774c-1.473.344-2.955.27-4.273-.279zm-71.059-6.972l.027.171.014.098.005.035.003.024.002.016c.437 2.096 2.055 4.277 3.93 5.402 1.799 1.076 3.642.938 5.459.051 1.866-.911 3.599-2.579 4.866-4.312h.001c1.233-1.684 2.024-3.662 2.027-5.611l-16.334 4.126zm0 0l-.065-.161m.065.161l-.065-.161m0 0c-1.157-2.843.123-6.756 2.673-8.981l-2.673 8.981zm8.446-11.377c-2.112.063-4.11.946-5.773 2.396l5.773-2.396zm0 0c2.012-.061 4.046.776 5.603 2.175l-5.603-2.175zm5.604 2.175c1.472 1.325 2.352 3.273 2.349 5.237l-2.349-5.237z" stroke="#662549" stroke-width="3"/><path d="M230.008 122.738c-.46-.22-.923-.434-1.4-.617a33.339 33.339 0 00-2.749-.923c-1.858-.542-3.796-.83-5.725-.937-1.058-.06-1.254 1.579-.235 1.827 1.769.432 3.511.956 5.243 1.518.815.265 1.62.557 2.413.881.878.356 1.876.906 2.834.87.695-.027 1.42-.895.911-1.563-.379-.501-.723-.785-1.292-1.056zm-79.541-.31a6.236 6.236 0 01-.236-.057l.357.206c-.436-.359-.815-.318-1.341-.232a5.992 5.992 0 00-1.078.287c-.74.267-1.471.566-2.18.905-1.339.638-2.796 1.381-3.872 2.416l.021.004c-.184.192-.296.455-.261.722.079.625.739.915 1.281.646.626-.312 1.201-.711 1.812-1.05.632-.35 1.28-.672 1.944-.961a20.93 20.93 0 011.844-.708c.373-.124.731-.254 1.092-.415.45-.202.762-.359.943-.854-.069.118-.136.238-.205.357.057-.057.116-.112.177-.165.365-.337.169-.993-.298-1.101z" fill="#662549"/></svg>