<svg width="197" height="197" fill="none" xmlns="http://www.w3.org/2000/svg"><path d="M29.448 23.433l6.223-9.531-9.531 6.223-1.352-6.44-1.352 6.44-9.531-6.223 6.223 9.53-6.44 1.353 6.44 1.352-6.223 9.53 9.53-6.223 1.353 6.44 1.352-6.44 9.53 6.224-6.223-9.531 6.44-1.352-6.44-1.352z" fill="#662549"/><path d="M37.178 37.179l-10.743-7.014-1.65 7.857-1.65-7.857-10.742 7.014 7.014-10.743-7.857-1.65 7.857-1.65-7.014-10.743 10.743 7.014 1.65-7.857 1.65 7.857 10.742-7.014-7.013 10.743 7.856 1.65-7.857 1.65 7.014 10.743zm-11.337-8.45l8.32 5.432-5.433-8.32 5.025-1.055-5.025-1.055 5.432-8.319-8.32 5.431-1.055-5.024-1.055 5.024-8.32-5.432 5.433 8.32-5.025 1.055 5.025 1.055-5.432 8.32 8.32-5.432 1.054 5.025 1.055-5.025zM176.19 170.175l6.223-9.531-9.531 6.223-1.352-6.44-1.352 6.44-9.531-6.223 6.223 9.531-6.44 1.352 6.44 1.352-6.223 9.531 9.531-6.223 1.352 6.44 1.352-6.44 9.531 6.223-6.223-9.531 6.44-1.352-6.44-1.352z" fill="#662549"/><path d="M183.921 183.921l-10.743-7.014-1.65 7.857-1.65-7.857-10.743 7.014 7.014-10.743-7.856-1.65 7.857-1.65-7.014-10.743 10.743 7.014 1.65-7.857 1.649 7.857 10.743-7.014-7.013 10.743 7.856 1.65-7.856 1.65 7.013 10.743zm-11.338-8.45l8.319 5.431-5.431-8.319 5.024-1.055-5.024-1.055 5.432-8.32-8.32 5.432-1.055-5.024-1.056 5.024-8.319-5.431 5.431 8.319-5.024 1.055 5.025 1.055-5.432 8.32 8.32-5.432 1.054 5.024 1.056-5.024z" fill="#662549"/></svg>