<svg width="155" height="162" fill="none" xmlns="http://www.w3.org/2000/svg"><path d="M104.111 4.443c2.823 9.532-.557 20.28-6.754 28.01-4.489 5.602-11.27 8.947-18.216 9.384-15.85.997-33.754-14.875-29.65-34.886C41.323 19.077 43.384 37 53.203 47.454c9.817 10.454 25.713 13.573 39.156 7.305 8.56-3.99 15.07-13.436 17.274-22.923 2.204-9.49.423-18.94-5.522-27.393z" fill="#987C96"/><path d="M77.486 8.886c2.368 0 4.287-1.99 4.287-4.443 0-2.454-1.92-4.443-4.287-4.443C75.118 0 73.2 1.99 73.2 4.443c0 2.454 1.92 4.443 4.287 4.443zm-2.636 130.12c-1.866-1.509-2.2-4.301-.744-6.236 1.456-1.935 4.148-2.281 6.016-.772 1.867 1.509 2.2 4.301.745 6.236-1.456 1.935-4.15 2.281-6.017.772zm14.583-58.275l-10.956.034-.094-10.92a1 1 0 00-1-.991h-.009a1 1 0 00-.99 1.009l.093 10.908-10.945.034a1 1 0 00.003 2h.003l10.956-.034.094 10.921a1 1 0 001 .991h.01a1 1 0 00.99-1.009l-.093-10.909 10.945-.034a1 1 0 00.997-1.003c-.003-.553-.422-1.014-1.004-.997zm-6.94 73.535h-.002l-4.013.013-.034-4.26a1 1 0 00-1-.992h-.008a1.001 1.001 0 00-.993 1.008l.035 4.251-4.002.013a1.001 1.001 0 00.002 2h.004l4.011-.013.035 4.261a1 1 0 001 .992h.008c.552-.005.996-.456.992-1.008l-.034-4.252 4.004-.013a1 1 0 00-.005-2zm-5.006-32.237c4.431 0 8.024-3.687 8.024-8.235s-3.593-8.235-8.024-8.235c-4.431 0-8.024 3.687-8.024 8.235s3.593 8.235 8.024 8.235zm37.805-27.718a.998.998 0 01-.865-.497l-16.64-28.607a1 1 0 111.727-1.006l16.641 28.606a1 1 0 01-.863 1.504zm38.383-68.044h-.002l-32.462-.06a1 1 0 01.002-2h.002l32.462.06a1 1 0 01-.002 2zM141.78 66.818a.997.997 0 01-.542-.16l-27.457-17.773a1.001 1.001 0 011.087-1.68l27.456 17.773a1.001 1.001 0 01-.544 1.84zm-5.868-23.501a1.01 1.01 0 01-.286-.042l-17.427-5.198a1 1 0 11.571-1.916l17.427 5.198a1 1 0 01-.285 1.958zm-15.376 28.189a.995.995 0 01-.738-.325l-12.425-13.575a1 1 0 111.476-1.349l12.425 13.575a.998.998 0 01-.738 1.674zm8.921-38.129c-.054 0-.108-.004-.163-.013l-8.92-1.458a1.001 1.001 0 01.322-1.974l8.92 1.458a1.001 1.001 0 01-.159 1.987zm-3.539 13.383a.974.974 0 01-.379-.075l-8.387-3.443a1 1 0 11.76-1.85l8.387 3.443a1 1 0 01-.381 1.925zm-7.022 12.969a.996.996 0 01-.613-.21l-7.205-5.592a1 1 0 011.226-1.58l7.205 5.592a1 1 0 01-.613 1.79zm-9.07 9.567a.999.999 0 01-.783-.378l-5.708-7.185a.999.999 0 111.566-1.244l5.708 7.185a.999.999 0 01-.783 1.622zM39.382 94.31a1 1 0 01-.863-1.503l16.64-28.605a1 1 0 011.729 1.006L40.247 93.815a1 1 0 01-.865.496zM1 26.267a1 1 0 01-.002-2l32.462-.06h.002a1 1 0 01.002 2l-32.462.06H1zm11.895 40.551a1.001 1.001 0 01-.544-1.84l27.457-17.773a1 1 0 011.087 1.68L13.438 66.658c-.169.108-.357.16-.543.16zm5.869-23.501a1 1 0 01-.285-1.958l17.427-5.198a1 1 0 11.571 1.916L19.05 43.275a1.016 1.016 0 01-.286.042zM34.14 71.506a1 1 0 01-.738-1.675l12.425-13.575a.999.999 0 111.476 1.349L34.878 71.18a.993.993 0 01-.738.326zm-8.922-38.129a1.001 1.001 0 01-.16-1.987l8.92-1.458a1 1 0 11.322 1.974l-8.92 1.458a.992.992 0 01-.162.013zm3.539 13.383a1 1 0 01-.38-1.925l8.386-3.443a.998.998 0 011.305.545 1.001 1.001 0 01-.545 1.305l-8.387 3.443a.977.977 0 01-.379.075zm7.023 12.97a1 1 0 01-.614-1.79l7.205-5.593a.999.999 0 111.226 1.58l-7.205 5.592a.991.991 0 01-.612.21zm9.068 9.566a.998.998 0 01-.783-1.622l5.708-7.185a1 1 0 011.566 1.244l-5.708 7.185a.999.999 0 01-.783.378z" fill="#987C96"/></svg>