<svg width="68" height="70" fill="none" xmlns="http://www.w3.org/2000/svg"><path d="M45.114 1.925c1.224 4.13-.24 8.789-2.926 12.138-1.945 2.428-4.884 3.877-7.894 4.066-6.868.432-14.626-6.446-12.848-15.117-3.54 5.255-2.646 13.021 1.608 17.551 4.255 4.53 11.143 5.882 16.968 3.166 3.71-1.73 6.53-5.822 7.485-9.933.955-4.112.184-8.208-2.392-11.87z" fill="#987C96"/><path d="M33.577 3.85c1.026 0 1.858-.861 1.858-1.925C35.435.862 34.603 0 33.577 0c-1.026 0-1.857.862-1.857 1.925 0 1.064.831 1.926 1.857 1.926zm-1.142 56.386c-.809-.654-.954-1.864-.323-2.702a1.814 1.814 0 012.607-.335c.81.654.954 1.864.323 2.702a1.814 1.814 0 01-2.607.335zm6.319-25.252l-4.747.014-.041-4.732a.434.434 0 00-.433-.43h-.004a.433.433 0 00-.43.438l.041 4.727-4.743.015a.433.433 0 00.002.866l4.748-.014.041 4.732c.002.238.196.43.433.43h.004a.433.433 0 00.43-.438l-.04-4.727 4.742-.015c.24 0 .433-.195.432-.434a.422.422 0 00-.435-.432zm-3.007 31.864h-.001l-1.739.006-.015-1.846a.433.433 0 00-.433-.43h-.004a.434.434 0 00-.43.437l.015 1.842-1.734.006a.434.434 0 00.001.866h.002l1.738-.005.015 1.846c.002.238.196.43.434.43h.003a.434.434 0 00.43-.437l-.015-1.842 1.735-.006a.433.433 0 00-.002-.867zM33.578 52.88c1.92 0 3.477-1.599 3.477-3.57 0-1.97-1.557-3.568-3.477-3.568S30.1 47.34 30.1 49.311c0 1.97 1.556 3.568 3.477 3.568zM49.96 40.868a.432.432 0 01-.375-.215l-7.211-12.397a.433.433 0 11.749-.436l7.21 12.396a.433.433 0 01-.373.652zm16.632-29.486l-14.067-.026a.433.433 0 010-.866h.001l14.067.026a.433.433 0 010 .866zm-5.154 17.572a.432.432 0 01-.235-.069l-11.898-7.702a.434.434 0 01.47-.727l11.898 7.701a.434.434 0 01-.235.797zM58.895 18.77a.439.439 0 01-.124-.018L51.22 16.5a.433.433 0 11.247-.83l7.552 2.252a.433.433 0 01-.124.848zm-6.663 12.216a.431.431 0 01-.32-.14l-5.384-5.883a.433.433 0 11.64-.585l5.384 5.883a.433.433 0 01-.32.725zm3.866-16.523a.437.437 0 01-.07-.005l-3.866-.632a.434.434 0 01.14-.856l3.865.632a.434.434 0 01-.069.861zm-1.534 5.799a.42.42 0 01-.164-.032l-3.634-1.492a.433.433 0 11.329-.802l3.634 1.492a.433.433 0 01-.165.834zm-3.042 5.62a.432.432 0 01-.266-.09l-3.122-2.424a.434.434 0 01.531-.685l3.122 2.424a.434.434 0 01-.265.775zm-3.931 4.146a.433.433 0 01-.34-.164l-2.473-3.113a.433.433 0 11.679-.54l2.473 3.114a.433.433 0 01-.339.703zm-30.526 10.84a.433.433 0 01-.374-.651l7.212-12.396a.433.433 0 01.748.436l-7.21 12.396a.433.433 0 01-.376.215zM.433 11.382a.433.433 0 010-.866l14.066-.026h.001a.433.433 0 01.001.866l-14.067.026zm5.155 17.572a.432.432 0 01-.236-.797l11.898-7.702a.433.433 0 01.471.728L5.823 28.885a.436.436 0 01-.235.07zM8.13 18.77a.433.433 0 01-.123-.848l7.552-2.252a.434.434 0 01.248.83l-7.552 2.252a.441.441 0 01-.124.018zm6.664 12.216a.434.434 0 01-.32-.726l5.384-5.883a.433.433 0 11.64.585l-5.384 5.883a.43.43 0 01-.32.14zm-3.866-16.523a.434.434 0 01-.07-.86l3.866-.633a.433.433 0 11.14.855l-3.866.633a.43.43 0 01-.07.005zm1.533 5.799a.433.433 0 01-.165-.834l3.635-1.492a.433.433 0 11.329.802l-3.634 1.492a.422.422 0 01-.165.032zm3.044 5.62a.433.433 0 01-.266-.775l3.122-2.424a.433.433 0 11.531.685l-3.122 2.423a.429.429 0 01-.265.091zm3.929 4.146a.432.432 0 01-.34-.703l2.474-3.113a.434.434 0 01.679.539l-2.474 3.113a.433.433 0 01-.34.164z" fill="#987C96"/></svg>