<svg width="120" height="73" fill="none" xmlns="http://www.w3.org/2000/svg"><g id="Group 13"><path id="Vector" d="M91.204 53.772v.008l-.246.443C85.97 62.868 77.934 68.672 69 71.06c-8.792 2.352-18.443 1.412-26.99-3.358l-.06-.031-.39-.225v-.002c-8.649-4.991-14.456-13.016-16.848-21.943a36.031 36.031 0 013.619-27.42v-.006c4.989-8.645 13.004-14.45 21.96-16.84C59.224-1.155 69.06-.142 77.707 4.85v.002a36.06 36.06 0 0116.868 21.944 36.046 36.046 0 01-3.372 26.975zM68.04 67.459c8.015-2.142 15.212-7.343 19.69-15.087v-.02c4.478-7.744 5.377-16.58 3.23-24.594-2.146-7.997-7.34-15.187-15.049-19.66l-.06-.023C68.1 3.6 59.265 2.692 51.251 4.84c-8.036 2.146-15.233 7.35-19.71 15.103v-.004a32.409 32.409 0 00-3.23 24.604c2.105 7.864 7.155 14.942 14.68 19.427l.428.255c7.75 4.474 16.603 5.384 24.62 3.234z" fill="#33353B"/><path id="Vector_2" fill-rule="evenodd" clip-rule="evenodd" d="M73.355 12.4A27.365 27.365 0 0052.54 9.663c-6.788 1.815-12.882 6.219-16.664 12.773a27.349 27.349 0 00-2.74 20.813 27.62 27.62 0 003.578 7.974c.328-.064.675-.127 1.023-.194C49.74 48.7 63.01 44.763 74.767 40.284c4.355-1.662 8.506-3.393 12.289-5.142a27.803 27.803 0 00-.92-6.09A27.258 27.258 0 0073.398 12.42l-.043-.02z" fill="#987C96"/><path id="Vector_3" fill-rule="evenodd" clip-rule="evenodd" d="M75.89 43.23c-11.758 4.479-25.007 8.423-37.07 10.8a27.473 27.473 0 006.727 5.655l.368.217c6.563 3.785 14.046 4.554 20.834 2.737 6.768-1.813 12.861-6.213 16.644-12.781a27.104 27.104 0 003.578-11.212A204.855 204.855 0 0175.89 43.23z" fill="#987C96"/><path id="Vector_4" d="M86.992 14.498c12.207-2.224 21.264-2.6 26.376-1.396 2.208.517 3.824 1.363 4.785 2.51 1.186 1.385 1.431 3.05.695 4.958-.777 2.03-2.842 4.388-6.298 7.014-7.218 5.477-19.568 11.55-33.696 16.936-14.087 5.365-29.995 10.086-44.41 12.879-13.086 2.538-22.798 3.06-28.257 1.864-2.29-.5-3.966-1.335-4.989-2.475C-.05 55.396-.336 53.712.4 51.768c.777-2.035 2.862-4.407 6.338-7.052 2.126-1.617 4.683-3.278 7.586-4.948 3.006-1.725 6.36-3.462 9.978-5.17l1.574 3.37c-3.558 1.685-6.829 3.375-9.712 5.023-2.78 1.6-5.193 3.176-7.197 4.684-2.883 2.195-4.539 4.01-5.07 5.408-.205.527-.165.94.081 1.226v.004c.491.533 1.492.973 2.985 1.302 5.01 1.097 14.19.564 26.785-1.876 14.17-2.753 29.872-7.406 43.776-12.703C91.367 35.76 103.39 29.869 110.3 24.625c2.883-2.191 4.539-3.995 5.07-5.39v-.005c.205-.52.185-.927-.061-1.21-.429-.521-1.39-.956-2.801-1.287-4.641-1.095-13.167-.701-24.863 1.427l-.653-3.662z" fill="#33353B"/></g></svg>