<svg width="50" height="30" fill="none" xmlns="http://www.w3.org/2000/svg"><g id="Group 13"><path id="Vector" d="M37.845 22.313v.003l-.102.184a14.948 14.948 0 01-9.112 6.987 14.964 14.964 0 01-11.2-1.394l-.024-.012-.162-.094a14.952 14.952 0 01-6.991-9.106 14.951 14.951 0 011.502-11.378v-.002A14.93 14.93 0 0120.868.513a14.946 14.946 0 0111.377 1.5 14.963 14.963 0 017 9.106 14.958 14.958 0 01-1.4 11.194zm-9.612 5.68a13.408 13.408 0 008.17-6.261v-.008a13.397 13.397 0 001.34-10.206A13.43 13.43 0 0031.5 3.361l-.025-.01a13.408 13.408 0 00-10.207-1.343c-3.334.89-6.32 3.05-8.179 6.267v-.001a13.448 13.448 0 00-1.34 10.21c.874 3.262 2.97 6.2 6.091 8.06l.178.106a13.427 13.427 0 0010.216 1.342z" fill="#33353B"/><path id="Vector_2" fill-rule="evenodd" clip-rule="evenodd" d="M30.439 5.145a11.355 11.355 0 00-8.637-1.135 11.34 11.34 0 00-6.915 5.3 11.348 11.348 0 00-1.137 8.636 11.459 11.459 0 001.485 3.309l.424-.08c4.98-.966 10.487-2.6 15.366-4.46a81.52 81.52 0 005.099-2.133 11.532 11.532 0 00-.382-2.527 11.31 11.31 0 00-5.285-6.901l-.018-.009z" fill="#987C96"/><path id="Vector_3" fill-rule="evenodd" clip-rule="evenodd" d="M31.49 17.939c-4.878 1.858-10.376 3.494-15.381 4.48.78.907 1.713 1.703 2.791 2.347l.153.09a11.369 11.369 0 008.645 1.136 11.33 11.33 0 006.906-5.303 11.246 11.246 0 001.485-4.653 85.056 85.056 0 01-4.598 1.903z" fill="#987C96"/><path id="Vector_4" d="M36.098 6.016c5.065-.923 8.823-1.079 10.944-.58.917.215 1.587.566 1.986 1.042.492.575.594 1.266.288 2.057-.322.843-1.179 1.821-2.613 2.91-2.995 2.274-8.12 4.794-13.982 7.029-5.846 2.226-12.447 4.185-18.428 5.344-5.43 1.053-9.46 1.27-11.726.773-.95-.207-1.645-.554-2.07-1.027-.518-.577-.636-1.276-.33-2.082.322-.845 1.187-1.83 2.63-2.927.881-.671 1.942-1.36 3.147-2.053a58.603 58.603 0 014.14-2.145l.653 1.398a59.416 59.416 0 00-4.03 2.084 29.319 29.319 0 00-2.986 1.944c-1.196.91-1.883 1.664-2.104 2.244-.085.218-.068.39.034.508v.002c.204.221.619.404 1.238.54 2.079.456 5.889.234 11.115-.778 5.88-1.142 12.395-3.073 18.165-5.271 5.744-2.189 10.733-4.634 13.6-6.81 1.197-.91 1.884-1.658 2.104-2.236v-.003c.085-.215.077-.384-.025-.502-.178-.216-.577-.396-1.162-.534-1.926-.454-5.464-.29-10.317.592l-.271-1.52z" fill="#33353B"/></g></svg>