<svg width="229" height="229" fill="none" xmlns="http://www.w3.org/2000/svg"><g id="Group 48098555"><path id="Vector" d="M118.668 33.619c23.43 16.477 37.359 44.917 33.875 75.382-4.886 42.723-42.234 73.829-84.612 71.545 31.548 22.179 75.394 19.187 103.597-9.017 31.578-31.578 31.578-82.773 0-114.351-14.692-14.692-33.628-22.537-52.86-23.56z" fill="#662549" stroke="#662549" stroke-width="1.5" stroke-miterlimit="10" stroke-linecap="round" stroke-linejoin="round"/><path id="Vector_2" d="M171.527 171.527c31.577-31.577 31.577-82.774 0-114.351-31.577-31.578-82.774-31.578-114.351 0-31.578 31.577-31.578 82.774 0 114.351 31.577 31.577 82.774 31.577 114.351 0z" stroke="#662549" stroke-width="1.5" stroke-miterlimit="10"/><path id="Vector_3" d="M80.54 79.977c-2.555-2.72-5.863-4.778-9.465-5.776-6.635-1.84-13.919-.089-19.075 4.425-1.268 1.11.561 2.866 1.83 1.831 4.541-3.698 10.87-5.066 16.505-3.433 3.032.879 5.74 2.638 7.886 4.943 1.077 1.156 1.978 2.446 2.744 3.828.515.935.918 1.923 1.349 2.894-.091 2.683.07 5.327-.335 8.006-.415 2.75-1.17 5.454-2.161 8.052-2.283 5.975-5.891 11.405-9.59 16.582-1.37 1.914-3.028 3.892-3.281 6.329-.238 2.298 1.073 4.414 3.293 5.145 5.472 1.799 8.988-4.419 14.328-3.618 2.356.353 4.574 1.366 6.841 2.05 1.867.563 5.22 1.517 6.65-.308.343-.438.28-.92-.17-1.251-.777-.572-1.524-.566-2.455-.712a24.068 24.068 0 01-3.03-.695c-1.896-.554-3.729-1.313-5.644-1.801-1.884-.478-3.872-.697-5.786-.246-2.562.605-4.438 2.519-6.862 3.386-1.011.361-2.623.597-3.486-.217-.837-.788-.344-2.041.081-2.893 1.175-2.361 3.067-4.434 4.553-6.601 3.228-4.709 6.088-9.678 7.987-15.08 1.583-4.5 2.948-10.218 2.003-15.126.004-.034.019-.065.022-.102.125-3.515-2.439-7.167-4.733-9.612z" fill="#662549"/><path id="Vector_4" d="M129.988 75.646a16.731 16.731 0 00-3.544-2.335c-2.532-1.236-5.34-1.927-8.162-1.897-2.804.03-5.584.792-8.055 2.103a18.51 18.51 0 00-3.437 2.375c-.92.8-2.12 1.98-2.403 3.2-.159.689.557 1.22 1.175.904 1.032-.53 1.891-1.597 2.789-2.335.91-.749 1.927-1.376 2.981-1.901a15.4 15.4 0 016.951-1.6c2.332.022 4.656.604 6.732 1.668a17.67 17.67 0 012.916 1.872c.508.403 1.05.763 1.538 1.19.491.431.865.919 1.528 1.064.612.136 1.255-.298 1.244-.96-.019-1.171-1.389-2.609-2.253-3.348z" fill="#662549"/><path id="Vector_5" d="M100.995 144.454c-1.514-.165-2.927.194-4.404.489-1.491.297-2.997.51-4.518.535a14.257 14.257 0 01-4.482-.635c-1.511-.473-2.964-1.079-4.547-1.268-4.917-.582-9.077 3.356-13.975 2.426-1.162-.221-1.94 1.37-.812 1.995 4.828 2.666 9.708-2.358 14.61-1.698 1.66.223 3.188.995 4.796 1.413 1.493.385 3.057.537 4.597.497 2.946-.074 6.69-.482 9.139-2.232.679-.485.424-1.432-.404-1.522z" fill="#662549"/><path id="Vector_6" d="M87.531 154.959c-.289.145-.5.285-.695.423-.28.196-.36.279-.695.483a7.657 7.657 0 01-.703.367 1.4 1.4 0 00-.087.042.525.525 0 00-.083.022c-.13.04-.26.081-.39.117-.132-.003-.264-.053-.402-.024-.193.041-.382.109-.576.153a5.915 5.915 0 01-.26.051c-.018.004-.095.013-.139.019l-.195.013a6.68 6.68 0 01-.794-.011l-.152-.017s-.151-.023-.189-.031a6.28 6.28 0 01-.782-.204c-.023-.007-.089-.032-.136-.049a5.968 5.968 0 01-.903-.476c-.095-.06-.186-.128-.28-.189-.008-.004-.004 0-.01-.006l-.009-.009c-.134-.123-.274-.232-.404-.359a8.62 8.62 0 01-.764-.812c-.015-.019-.028-.04-.043-.063a7.214 7.214 0 01-.185-.283c-.14-.227-.3-.433-.467-.637-.614-.758-2.142-.159-2.018.835.348 2.747 3.212 4.909 5.829 5.285a7.879 7.879 0 002.228-.006c.306-.041.612-.094.907-.181.31-.091.59-.214.827-.439.028-.032.025-.032.04-.047.056-.026.111-.055.166-.083 1.13-.593 2.405-1.562 2.715-2.859.18-.784-.648-1.381-1.35-1.025z" fill="#662549"/><path id="Vector_7" d="M131.955 91.088a25.587 25.587 0 00-3.97-2.507 27.905 27.905 0 00-9.067-2.848 28.163 28.163 0 00-8.689.225c-2.615.472-6.167 1.33-8.036 3.361-.788.856.008 1.977 1.052 1.835 1.28-.172 2.511-.792 3.738-1.18.99-.313 2.01-.54 3.027-.755-.097.452-.146.916-.189 1.372a10.72 10.72 0 00.104 2.719c.3 1.876 1.186 3.737 2.558 5.07 1.332 1.295 3.132 2.072 4.995 2.091.452.005.913-.044 1.355-.127.497-.093 1.019-.46 1.308-.642.606-.384 1.545-.941 1.685-1.87.106-.692-.302-1.433-1.092-1.414-.412.011-.726.11-1.105.274-.051.02-.495.155-.618.198-.089-.01-.178-.038-.267-.024-.238.01-.474.062-.71.09.178-.022-.045.008-.102.012-.185.011-.367.015-.552.011a4.246 4.246 0 01-.308-.02c-.024-.01-.225-.044-.251-.052-.151-.034-.295-.08-.444-.119-.272-.072-.015.011-.195-.07-.653-.298-1.041-.599-1.541-1.118-.845-.875-1.35-2.075-1.574-3.331-.206-1.147-.089-2.315-.189-3.462 1.876-.18 3.773-.217 5.626.046a24.628 24.628 0 017.887 2.524 28.273 28.273 0 013.614 2.265c1.007.735 2.128 2.12 3.394 2.283.963.124 1.628-.518 1.49-1.491-.19-1.423-1.866-2.524-2.934-3.346z" fill="#662549"/><path id="Vector_8" d="M72.732 87.167c-1.14-.346-2.319-.55-3.5-.699-2.34-.293-4.68-.229-7.011.134-2.318.361-4.574 1.083-6.696 2.082a20.71 20.71 0 00-2.883 1.633c-1 .686-2.166 1.459-2.84 2.477-.786 1.19.735 2.401 1.85 1.85.91-.454 1.717-1.26 2.582-1.812.42-.269.875-.478 1.31-.72.064.355.157.716.29 1.073.58 1.555 1.278 3.155 2.357 4.43 1.009 1.195 2.509 1.962 4.092 1.871 1.563-.089 3.855-1.398 2.914-3.261-.17-.336-.614-.614-.998-.582-.45.038-.739.172-1.118.412.23-.147-.036-.002-.084.023a3.188 3.188 0 00-.287.17c-.03.019-.03.022-.045.034-.006-.002-.002-.006-.023 0-.11.03-.223.056-.334.089a.405.405 0 00-.07.024c-.006-.002-.004-.004-.025-.002-.12.008-.24.002-.357.006-.262.005.038.023-.111-.01-.12-.024-.234-.056-.352-.087a.496.496 0 00-.075-.015c-.004-.003-.002-.005-.027-.019a5.518 5.518 0 01-.311-.171c-.354-.221-.728-.66-.981-1.041-.352-.533-.639-1.104-.913-1.676-.219-.458-.457-.941-.591-1.332-.16-.467-.221-.773-.23-1.206 1.486-.565 3.026-1.009 4.594-1.247 1.96-.3 4.014-.314 5.979-.05 1.048.143 2.078.386 3.098.662 1.047.284 2.01.74 3.11.692 1.107-.05 1.546-1.278.864-2.084-.796-.94-2.031-1.298-3.178-1.648z" fill="#662549"/><path id="Vector_9" d="M115.635 110.899h0c-2.56.603-4.715 2.597-5.236 5.053l-.061.283-.161.24c-.592.884-.732 1.956-.51 3.194.224 1.255.805 2.57 1.501 3.762l4.467-12.532zm0 0c2.824-.666 5.815.326 7.971 2.412l.003.002c1.103 1.064 1.994 2.397 2.346 3.742.336 1.287.098 2.647-.598 3.938h-.001m-9.721-10.094l9.721 10.094m0 0c-.702 1.302-1.801 2.571-2.98 3.624m2.98-3.624l-2.98 3.624m-7.917 2.01c1.197.499 2.548.568 3.895.253l-3.895-.253zm0 0c-1.362-.569-2.426-1.713-3.291-3.195l3.291 3.195zm7.917-2.01c-1.228 1.093-2.579 1.925-4.022 2.263l4.022-2.263z" stroke="#662549" stroke-width="3"/><path id="Vector_10" d="M48.633 120.233l.027.171.013.094.005.033.002.022.002.01c.4 1.91 1.879 3.906 3.592 4.935 1.63.974 3.298.852 4.958.042 1.71-.835 3.304-2.367 4.473-3.964v-.001c1.133-1.548 1.855-3.36 1.858-5.138.003-1.79-.799-3.567-2.142-4.775l-12.788 8.571zm0 0l-.065-.16m.065.16l-.065-.16m0 0c-1.052-2.584.11-6.164 2.45-8.205l-2.45 8.205zm2.45-8.205c1.525-1.33 3.354-2.137 5.284-2.195l-5.285 2.195zm5.284-2.195c1.833-.055 3.692.708 5.119 1.989l-5.12-1.989z" stroke="#662549" stroke-width="3"/><path id="Vector_11" d="M130.75 85.065a18.015 18.015 0 00-1.298-.573 30.982 30.982 0 00-2.549-.856c-1.723-.502-3.52-.769-5.309-.869-.98-.055-1.162 1.464-.217 1.695a68 68 0 014.861 1.407c.756.246 1.502.516 2.237.817.815.33 1.741.84 2.629.806.644-.024 1.317-.829.844-1.449a2.935 2.935 0 00-1.198-.978z" fill="#662549"/><path id="Vector_12" d="M56.996 84.777c-.074-.017-.148-.034-.22-.053l.331.191c-.404-.333-.755-.295-1.243-.215a5.525 5.525 0 00-1 .266c-.685.248-1.364.525-2.021.839-1.241.591-2.592 1.28-3.59 2.24.006.003.013.003.019.004a.828.828 0 00-.242.67c.074.58.686.848 1.188.598.58-.289 1.113-.66 1.68-.973a21.007 21.007 0 011.803-.891 19.382 19.382 0 011.71-.656c.345-.115.678-.236 1.012-.386.418-.187.707-.332.875-.791l-.19.33c.052-.053.107-.103.164-.153.338-.311.157-.92-.276-1.02z" fill="#662549"/></g></svg>