<svg width="71" height="100" fill="none" xmlns="http://www.w3.org/2000/svg"><path id="Vector" d="M63.426 42.403a25.078 25.078 0 00-9.785-6.094 1.382 1.382 0 00-.885 2.618C68.388 43.973 73.047 64.75 61.47 76.25c-7.874 7.885-20.536 8.811-29.451 2.154a1.382 1.382 0 00-1.804.13L18.04 90.708c-.866.835-.238 2.381.977 2.36h15.534a2.084 2.084 0 010 4.169H10.806a2.241 2.241 0 01-2.238-2.238V71.252a2.084 2.084 0 014.168 0v15.534a1.382 1.382 0 002.36.978l12.18-12.183a1.382 1.382 0 00.135-1.797c-9.885-13.545-2.203-33.101 14.483-35.753a16.71 16.71 0 01.022 3.069c-8.054 1.363-14.69 8.258-15.764 16.354l-.003.016a19.445 19.445 0 00.11 6.328c1.466 9.153 10.177 16.234 19.242 16.03 10.444.215 19.762-8.884 19.56-19.525.076-7.483-4.477-14.605-11.28-17.713-1.684-.714-2.796 1.684-1.164 2.507 1.726.8 3.3 1.892 4.656 3.227 6.653 6.271 6.654 17.689 0 23.959-8.955 8.943-24.83 4.671-27.986-7.596 18.187-2.933 26.975-23.865 16.894-39.133l9.002-9.003v12.197a4.853 4.853 0 004.848 4.847c2.605.053 4.902-2.241 4.847-4.847V5.002A5.007 5.007 0 0059.877 0H36.13a4.847 4.847 0 000 9.694h12.198l-8.993 8.993c-9.682-6.748-23.85-5.398-32.08 3.11-9.672 9.261-9.675 26.538 0 35.799a25.056 25.056 0 009.739 6.079 1.382 1.382 0 10.891-2.615C2.278 55.988-2.354 35.238 9.211 23.75c7.875-7.887 20.535-8.812 29.45-2.154a1.381 1.381 0 001.804-.13L52.64 9.29c.864-.835.239-2.381-.978-2.36H36.131c-2.76-.111-2.77-4.05 0-4.167h23.746a2.24 2.24 0 012.238 2.239v23.747c-.11 2.766-4.06 2.76-4.169 0V13.213a1.383 1.383 0 00-2.36-.978L43.405 24.417a1.382 1.382 0 00-.135 1.798c9.884 13.545 2.204 33.1-14.483 35.752a16.73 16.73 0 01-.021-3.068c8.053-1.362 14.69-8.26 15.764-16.355l.002-.016a19.43 19.43 0 00-.11-6.335C41.828 20.916 22.425 14.817 11.47 25.745c-7.747 7.3-7.747 20.6 0 27.9a19.334 19.334 0 005.384 3.743 1.38 1.38 0 101.17-2.504 16.587 16.587 0 01-4.616-3.21c-6.653-6.27-6.654-17.689 0-23.959 8.955-8.943 24.83-4.672 27.986 7.595C23.206 38.244 14.416 59.176 24.5 74.444l-9.002 9.003V71.252a4.853 4.853 0 00-4.848-4.847c-2.605-.053-4.902 2.241-4.847 4.847v23.746A5.008 5.008 0 0010.805 100h23.747a4.848 4.848 0 000-9.696H22.354l8.99-8.99c9.685 6.746 23.853 5.398 32.082-3.112 9.673-9.261 9.673-26.538 0-35.8zm-26.471 9.273a16.547 16.547 0 01-7.684 4.294c1.462-5.762 6.339-10.58 12.14-11.94a16.636 16.636 0 01-4.456 7.646z" fill="#662549"/></svg>