<svg width="100" height="100" fill="none" xmlns="http://www.w3.org/2000/svg"><g id="Group 27" fill="#662549"><path id="Vector" d="M36.732 6.763a29.933 29.933 0 00-19.665 52.529c.175.206.376.388.598.544a30.021 30.021 0 005.052 3.367c.039.019.074.04.113.055A29.96 29.96 0 1036.732 6.763zm0 56.608a26.47 26.47 0 01-10.477-2.153l6.66-6.66a1.665 1.665 0 00-2.355-2.354l-7.405 7.407a26.77 26.77 0 01-2.173-1.444l3.608-3.608a1.665 1.665 0 00-2.355-2.355l-3.82 3.82c-9.231-8.8-10.918-22.914-4.02-33.641 6.899-10.728 20.44-15.05 32.278-10.302 11.837 4.748 18.639 17.23 16.212 29.75-2.427 12.522-13.398 21.559-26.153 21.54z"/><path id="Vector_2" d="M36.733 13.423a1.665 1.665 0 100 3.33c11.03.013 19.967 8.95 19.98 19.979a1.665 1.665 0 003.33 0c-.015-12.867-10.442-23.294-23.31-23.31z"/><path id="Vector_3" d="M79.533 65.524a1.664 1.664 0 00-2.354 0l-.488.487-9.29-9.288c10.266-15.736 6.982-36.685-7.607-48.524-14.59-11.84-35.765-10.74-49.05 2.545C-2.543 24.029-3.64 45.205 8.198 59.794c11.839 14.59 32.787 17.874 48.523 7.608l9.29 9.288-.488.488c-.65.65-.65 1.705 0 2.355l19.98 19.979c.65.65 1.703.65 2.354 0l11.654-11.655a1.663 1.663 0 000-2.354l-19.98-19.98zm-42.8 4.507c-18.392 0-33.3-14.908-33.3-33.3 0-18.39 14.908-33.298 33.3-33.298 18.39 0 33.298 14.909 33.298 33.299C70.01 55.114 55.114 70.01 36.732 70.03zm22.724-4.604a36.898 36.898 0 005.97-5.97l8.91 8.909-5.97 5.97-8.91-8.91zM86.68 95.98L69.055 78.355l9.3-9.3L95.982 86.68l-9.3 9.3z"/><path id="Vector_4" d="M30.072 36.732a6.66 6.66 0 106.66-6.66 6.667 6.667 0 00-6.66 6.66zm9.99 0a3.33 3.33 0 11-6.66 0 3.33 3.33 0 016.66 0z"/><path id="Vector_5" d="M20.887 34.825a1.67 1.67 0 002.285-.562c3-4.592 8.075-7.406 13.559-7.52a16.614 16.614 0 0113.557 7.516 1.665 1.665 0 002.855-1.714 19.988 19.988 0 00-16.412-9.133 19.988 19.988 0 00-16.412 9.133 1.664 1.664 0 00.568 2.28z"/><path id="Vector_6" d="M52.575 38.638a1.667 1.667 0 00-2.284.563 16.609 16.609 0 01-13.56 7.52 16.61 16.61 0 01-13.556-7.516 1.665 1.665 0 10-2.855 1.714 19.988 19.988 0 0016.412 9.132 19.988 19.988 0 0016.412-9.132 1.664 1.664 0 00-.569-2.28z"/><path id="Vector_7" d="M77.181 72.184c-.65.65-.65 1.704 0 2.354L87.66 85.015l-2.153 2.153a1.664 1.664 0 102.354 2.354l3.33-3.33c.65-.649.65-1.703 0-2.354L79.536 72.184a1.664 1.664 0 00-2.355 0z"/><path id="Vector_8" d="M57.843 41.807a1.668 1.668 0 00-2.097 1.072 19.86 19.86 0 01-2.176 4.61 1.665 1.665 0 102.804 1.795 23.233 23.233 0 002.54-5.38 1.666 1.666 0 00-1.072-2.097z"/><path id="Vector_9" d="M50.052 88.345a1.665 1.665 0 003.33 0 5 5 0 014.995-4.995 1.665 1.665 0 000-3.33 5 5 0 01-4.995-4.994 1.665 1.665 0 00-3.33 0 5 5 0 01-4.995 4.995 1.665 1.665 0 000 3.33 5 5 0 014.995 4.994zm1.665-8.376a8.358 8.358 0 001.716 1.717 8.379 8.379 0 00-1.716 1.716 8.377 8.377 0 00-1.716-1.716 8.356 8.356 0 001.716-1.717z"/><path id="Vector_10" d="M75.028 10.093a5 5 0 014.995 4.995 1.665 1.665 0 103.33 0 5 5 0 014.995-4.995 1.665 1.665 0 000-3.33 5 5 0 01-4.995-4.995 1.665 1.665 0 00-3.33 0 5 5 0 01-4.995 4.995 1.665 1.665 0 000 3.33zm6.66-3.381a8.354 8.354 0 001.716 1.716 8.378 8.378 0 00-1.716 1.717 8.378 8.378 0 00-1.716-1.717 8.354 8.354 0 001.716-1.716z"/></g></svg>