<svg width="68" height="100" fill="none" xmlns="http://www.w3.org/2000/svg"><g id="Group 34" fill="#662549"><path id="Vector" d="M46.645 39.05c-5.612 0-9.998 2-12.894 3.895-5.93-4.13-16.08-5.715-23.358-.872a1.465 1.465 0 101.563 2.48c6.7-4.453 15.942-2.467 20.941 1.359.51.366 1.197.366 1.707 0C57.386 31.087 76.78 61.19 54.861 83.069a1.465 1.465 0 102.115 2.028c8.658-9.031 10.475-17.542 10.475-23.09 0-12.873-9.14-22.957-20.806-22.957z"/><path id="Vector_2" d="M49.96 87.567c-3.892 3.17-8.575 6.18-13.925 8.949-1.4.74-3.17.74-4.573-.003C3.06 81.721-2.276 62.47 7.326 48.778a1.465 1.465 0 10-2.315-1.796C-5.62 62.03-.27 83.292 30.11 99.114c2.227 1.181 5.05 1.181 7.275.002 5.524-2.858 10.378-5.979 14.425-9.277 1.461-1.278-.306-3.445-1.851-2.272z"/><path id="Vector_3" d="M12.098 64.154h2.442v2.442c.242 5.833 8.551 5.829 8.791 0v-2.442h2.442c5.833-.242 5.829-8.55 0-8.791h-2.442v-2.442c-.242-5.833-8.551-5.829-8.791 0v2.442h-2.442c-5.833.242-5.829 8.551 0 8.791zm0-5.86h3.363a2.011 2.011 0 002.01-2.01v-3.363c.068-1.94 2.861-1.938 2.93 0v3.364c0 1.107.9 2.008 2.009 2.008h3.363c1.94.07 1.939 2.863 0 2.93H22.41a2.011 2.011 0 00-2.01 2.01v3.363c-.068 1.94-2.861 1.939-2.93 0v-3.363a2.011 2.011 0 00-2.009-2.01h-3.363c-1.94-.068-1.939-2.861 0-2.93z"/><path id="Vector_4" d="M39.766 28.673h2.442v2.442c.242 5.833 8.55 5.829 8.791 0v-2.442h2.442c5.833-.242 5.829-8.55 0-8.791h-.327c-1.94.067-1.939 2.864 0 2.93h.327c1.94.07 1.938 2.862 0 2.93h-3.364a2.011 2.011 0 00-2.008 2.01v3.363c-.07 1.94-2.863 1.939-2.93 0v-3.363a2.011 2.011 0 00-2.01-2.01h-3.363c-1.94-.068-1.939-2.861 0-2.93h3.363a2.011 2.011 0 002.01-2.009V17.44c.068-1.94 2.861-1.939 2.93 0v.218c.067 1.94 2.864 1.939 2.93 0v-.218c-.242-5.833-8.551-5.829-8.791 0v2.442h-2.442c-5.833.242-5.829 8.551 0 8.791z"/><path id="Vector_5" d="M12.098 15.607h2.442v2.442c.242 5.832 8.551 5.828 8.791 0v-2.442h2.442c5.833-.243 5.829-8.552 0-8.792h-2.442V4.373c-.242-5.833-8.551-5.828-8.791 0v2.442h-2.442c-5.833.242-5.829 8.551 0 8.791zm0-5.861h3.363a2.011 2.011 0 002.01-2.01V4.374c.068-1.94 2.861-1.938 2.93 0v3.364c0 1.107.9 2.009 2.009 2.009h3.363c1.94.069 1.939 2.862 0 2.93H22.41a2.011 2.011 0 00-2.01 2.009v3.364c-.068 1.94-2.861 1.938-2.93 0v-3.364a2.011 2.011 0 00-2.009-2.009h-3.363c-1.94-.069-1.939-2.862 0-2.93z"/></g></svg>