<svg width="54" height="40" fill="none" xmlns="http://www.w3.org/2000/svg"><g id="Group" fill="#33353B"><path id="Vector" d="M33.677 5.488c.958 0 1.735-.78 1.735-1.742s-.777-1.743-1.735-1.743c-.958 0-1.734.78-1.734 1.743 0 .962.776 1.742 1.734 1.742z"/><path id="Vector_2" d="M25.558 31.503c.957 0 1.734-.78 1.734-1.743 0-.962-.777-1.742-1.735-1.742-.958 0-1.734.78-1.734 1.742s.776 1.743 1.735 1.743z"/><path id="Vector_3" d="M37.109 25.14a1.729 1.729 0 012.453 0c.677.68.677 1.783 0 2.463a1.73 1.73 0 01-2.453 0 1.748 1.748 0 010-2.464z"/><path id="Vector_4" d="M43.245 2.44c.67 0 1.215-.546 1.215-1.22 0-.674-.544-1.22-1.215-1.22S42.03.546 42.03 1.22c0 .674.544 1.22 1.215 1.22z"/><path id="Vector_5" d="M30.98 15.371a1.211 1.211 0 011.718 0c.475.477.475 1.25 0 1.726a1.211 1.211 0 01-1.718 0 1.224 1.224 0 010-1.726z"/><path id="Vector_6" d="M52.47 29.867c.67 0 1.215-.546 1.215-1.22 0-.674-.544-1.22-1.215-1.22-.672 0-1.215.546-1.215 1.22 0 .674.543 1.22 1.215 1.22z"/><path id="Vector_7" d="M.431 10.074a1.211 1.211 0 011.718 0c.475.477.475 1.25 0 1.726a1.211 1.211 0 01-1.718 0 1.225 1.225 0 010-1.726z"/><path id="Vector_8" d="M.356 29.344a1.211 1.211 0 011.718 0 1.224 1.224 0 010 1.726 1.211 1.211 0 01-1.718 0 1.224 1.224 0 010-1.726z"/><path id="Vector_9" d="M22.893 23.238l-7.921-1.222a.497.497 0 11.15-.982L22.68 22.2c2.759-1.726 5.51-3.692 8.633-6.167.712-3.871 1.396-7.974 2.058-11.944l.064-.383.28-.097C36.698 2.58 39.58 1.71 42.368.871a.496.496 0 11.286.951c-2.69.811-5.47 1.648-8.336 2.63-.663 3.975-1.349 8.076-2.062 11.945l-.035.183-.145.116c-3.272 2.6-6.14 4.649-9.027 6.446l-.156.096z"/><path id="Vector_10" d="M16.813 36.379a.495.495 0 01-.287-.903 324.705 324.705 0 019.1-6.183l.073-.049.086-.02a192.39 192.39 0 0012.295-3.296l.105-.032.108.015c5.037.698 9.703 1.433 14.265 2.247a.496.496 0 11-.175.978 368.108 368.108 0 00-14.119-2.225 193.58 193.58 0 01-12.168 3.261 326.49 326.49 0 00-8.997 6.116.497.497 0 01-.286.09z"/><path id="Vector_11" d="M38.335 26.868a.497.497 0 01-.413-.22l-6.658-9.912a.497.497 0 01.825-.554l6.658 9.912a.498.498 0 01-.412.774z"/><path id="Vector_12" d="M25.557 30.257a.497.497 0 01-.457-.303 82.771 82.771 0 01-2.671-7.218.497.497 0 11.947-.301 81.52 81.52 0 002.639 7.131.496.496 0 01-.458.691z"/><path id="Vector_13" d="M10.308 20.618c-.13 0-.26-.05-.357-.151L.996 11.22a.497.497 0 01.714-.691l8.955 9.246a.497.497 0 01-.357.843z"/><path id="Vector_14" d="M13.207 35.62a.493.493 0 01-.188-.037L1.027 30.666a.496.496 0 11.377-.919l11.991 4.916a.496.496 0 01-.188.957z"/><path id="Vector_15" d="M17.763 36.129l1.406-1.37-2.105-.306.273-1.749-1.439.785-.851-1.725-.886 1.794-1.542-.781.317 1.69-2.01.291 1.43 1.396-1.126 1.132 1.63.211-.36 2.107 1.88-.988.71 1.384.65-1.37 1.854.974-.372-2.171 1.641-.265-1.1-1.04z"/><path id="Vector_16" d="M15.407 21.24l1.405-1.37-2.104-.306.272-1.748-1.438.785-.851-1.726-.886 1.794-1.542-.78.317 1.69-2.011.291L10 21.266l-1.126 1.131 1.63.212-.36 2.107 1.88-.989.71 1.384.65-1.37 1.854.975-.372-2.172 1.641-.264-1.1-1.04z"/></g></svg>